<?xml version="1.0" encoding="us-ascii" standalone="no"?><svg xmlns="http://www.w3.org/2000/svg" xmlns:xlink="http://www.w3.org/1999/xlink" contentStyleType="text/css" height="200px" preserveAspectRatio="none" style="width:336px;height:200px;background:#FFFFFF;" version="1.1" viewBox="0 0 336 200" width="336px" zoomAndPan="magnify"><defs/><g><!--cluster Consultar Estad?sticas--><g id="cluster_Consultar Estad&#237;sticas"><rect fill="none" height="85" rx="2.5" ry="2.5" style="stroke:#181818;stroke-width:1.0;" width="181.95" x="149" y="48.25"/><text fill="#000000" font-family="sans-serif" font-size="14" font-weight="bold" lengthAdjust="spacing" textLength="161" x="159.475" y="63.7852">Consultar Estad&#237;sticas</text></g><g id="elem_VerEstadisticas"><ellipse cx="239.9732" cy="100.2546" fill="#F1F1F1" rx="74.9732" ry="17.3946" style="stroke:#181818;stroke-width:0.5;"/><text fill="#000000" font-family="sans-serif" font-size="14" lengthAdjust="spacing" textLength="106" x="186.9732" y="103.5457">Ver Estad&#237;sticas</text></g><!--entity Admin--><g id="elem_Admin"><ellipse cx="55.5" cy="22" fill="#F1F1F1" rx="16" ry="16" style="stroke:#181818;stroke-width:0.5;"/><path d="M55.5,42 C59.5,42 62.5,42 66.5,38 C74.5,38 82.5,46 82.5,54 L82.5,58 C82.5,62 78.5,66 74.5,66 L36.5,66 C32.5,66 28.5,62 28.5,58 L28.5,54 C28.5,46 36.5,38 44.5,38 C48.5,42 51.5,42 55.5,42 " fill="#F1F1F1" style="stroke:#181818;stroke-width:0.5;"/><text fill="#000000" font-family="sans-serif" font-size="14" lengthAdjust="spacing" textLength="99" x="6" y="80.0352">Administrador</text></g><!--entity Seleccionador--><g id="elem_Seleccionador"><ellipse cx="55.5" cy="134" fill="#F1F1F1" rx="16" ry="16" style="stroke:#181818;stroke-width:0.5;"/><path d="M55.5,154 C59.5,154 62.5,154 66.5,150 C74.5,150 82.5,158 82.5,166 L82.5,170 C82.5,174 78.5,178 74.5,178 L36.5,178 C32.5,178 28.5,174 28.5,170 L28.5,166 C28.5,158 36.5,150 44.5,150 C48.5,154 51.5,154 55.5,154 " fill="#F1F1F1" style="stroke:#181818;stroke-width:0.5;"/><text fill="#000000" font-family="sans-serif" font-size="14" lengthAdjust="spacing" textLength="96" x="7.5" y="192.0352">Seleccionador</text></g><!--link Admin to VerEstadisticas--><g id="link_Admin_VerEstadisticas"><path d="M105.4,59.25 C132.74,67.64 160.8639,76.28 187.6539,84.5 " fill="none" id="Admin-to-VerEstadisticas" style="stroke:#181818;stroke-width:1.0;"/><polygon fill="#181818" points="193.39,86.26,185.9592,79.796,188.6099,84.7933,183.6126,87.444,193.39,86.26" style="stroke:#181818;stroke-width:1.0;"/></g><!--link Seleccionador to VerEstadisticas--><g id="link_Seleccionador_VerEstadisticas"><path d="M103.97,141.68 C131.53,133.22 160.3339,124.3798 187.5839,116.0198 " fill="none" id="Seleccionador-to-VerEstadisticas" style="stroke:#181818;stroke-width:1.0;"/><polygon fill="#181818" points="193.32,114.26,183.5426,113.0756,188.5399,115.7265,185.889,120.7238,193.32,114.26" style="stroke:#181818;stroke-width:1.0;"/></g><!--SRC=[ROv12W8n34NtEKNeVguWY7Y20VUXZMEmqqgJGKJcI9x2Yrah2iEu2-y_VhwU9Lseq8ZaBPVURf6HhgnvP8XyDBICHOQJOP32tYGdQ2gwRHWbYLgXa8j3Kcpa6_SSsVlg_-850NZNKHhgGxVBIQTeL72lHk7vK1DFwl0EY9DolQjru5LUMojjK3uCPe2s0xjkimeN4_uQy080]--></g></svg>