<?xml version="1.0" encoding="us-ascii" standalone="no"?><svg xmlns="http://www.w3.org/2000/svg" xmlns:xlink="http://www.w3.org/1999/xlink" contentStyleType="text/css" height="321px" preserveAspectRatio="none" style="width:358px;height:321px;background:#FFFFFF;" version="1.1" viewBox="0 0 358 321" width="358px" zoomAndPan="magnify"><defs/><g><!--cluster CRUD Postulante--><g id="cluster_CRUD Postulante"><rect fill="none" height="304" rx="2.5" ry="2.5" style="stroke:#181818;stroke-width:1.0;" width="203.93" x="149" y="7"/><text fill="#000000" font-family="sans-serif" font-size="14" font-weight="bold" lengthAdjust="spacing" textLength="123" x="189.465" y="22.5352">CRUD Postulante</text></g><g id="elem_CrearPostulante"><ellipse cx="250.9571" cy="59.9974" fill="#F1F1F1" rx="78.2871" ry="18.0574" style="stroke:#181818;stroke-width:0.5;"/><text fill="#000000" font-family="sans-serif" font-size="14" lengthAdjust="spacing" textLength="114" x="193.9571" y="63.2884">Crear Postulante</text></g><g id="elem_ListarPostulante"><ellipse cx="250.9592" cy="277.0038" fill="#F1F1F1" rx="77.8692" ry="17.9738" style="stroke:#181818;stroke-width:0.5;"/><text fill="#000000" font-family="sans-serif" font-size="14" lengthAdjust="spacing" textLength="113" x="194.4592" y="280.2949">Listar Postulante</text></g><g id="elem_EditarPostulante"><ellipse cx="250.9559" cy="205.9952" fill="#F1F1F1" rx="79.1259" ry="18.2252" style="stroke:#181818;stroke-width:0.5;"/><text fill="#000000" font-family="sans-serif" font-size="14" lengthAdjust="spacing" textLength="116" x="192.9559" y="209.2862">Editar Postulante</text></g><g id="elem_EliminarPostulante"><ellipse cx="250.9647" cy="133.0029" fill="#F1F1F1" rx="85.9647" ry="19.5929" style="stroke:#181818;stroke-width:0.5;"/><text fill="#000000" font-family="sans-serif" font-size="14" lengthAdjust="spacing" textLength="132" x="184.9647" y="136.294">Eliminar Postulante</text></g><!--entity Admin--><g id="elem_Admin"><ellipse cx="55.5" cy="126.76" fill="#F1F1F1" rx="16" ry="16" style="stroke:#181818;stroke-width:0.5;"/><path d="M55.5,146.76 C59.5,146.76 62.5,146.76 66.5,142.76 C74.5,142.76 82.5,150.76 82.5,158.76 L82.5,162.76 C82.5,166.76 78.5,170.76 74.5,170.76 L36.5,170.76 C32.5,170.76 28.5,166.76 28.5,162.76 L28.5,158.76 C28.5,150.76 36.5,142.76 44.5,142.76 C48.5,146.76 51.5,146.76 55.5,146.76 " fill="#F1F1F1" style="stroke:#181818;stroke-width:0.5;"/><text fill="#000000" font-family="sans-serif" font-size="14" lengthAdjust="spacing" textLength="99" x="6" y="184.7952">Administrador</text></g><!--entity Seleccionador--><g id="elem_Seleccionador"><ellipse cx="55.5" cy="254.76" fill="#F1F1F1" rx="16" ry="16" style="stroke:#181818;stroke-width:0.5;"/><path d="M55.5,274.76 C59.5,274.76 62.5,274.76 66.5,270.76 C74.5,270.76 82.5,278.76 82.5,286.76 L82.5,290.76 C82.5,294.76 78.5,298.76 74.5,298.76 L36.5,298.76 C32.5,298.76 28.5,294.76 28.5,290.76 L28.5,286.76 C28.5,278.76 36.5,270.76 44.5,270.76 C48.5,274.76 51.5,274.76 55.5,274.76 " fill="#F1F1F1" style="stroke:#181818;stroke-width:0.5;"/><text fill="#000000" font-family="sans-serif" font-size="14" lengthAdjust="spacing" textLength="96" x="7.5" y="312.7952">Seleccionador</text></g><!--link Admin to CrearPostulante--><g id="link_Admin_CrearPostulante"><path d="M105.42,115.55 C116.81,108.55 129.09,101.6 141,96 C159.48,87.31 174.9057,81.608 193.6257,75.728 " fill="none" id="Admin-to-CrearPostulante" style="stroke:#181818;stroke-width:1.0;"/><polygon fill="#181818" points="199.35,73.93,189.5649,72.8108,194.5798,75.4283,191.9623,80.4432,199.35,73.93" style="stroke:#181818;stroke-width:1.0;"/></g><!--link Admin to ListarPostulante--><g id="link_Admin_ListarPostulante"><path d="M84.07,187.86 C99.05,206.51 118.99,227.83 141,242 C156.62,252.06 169.6285,257.6979 187.1285,263.0079 " fill="none" id="Admin-to-ListarPostulante" style="stroke:#181818;stroke-width:1.0;"/><polygon fill="#181818" points="192.87,264.75,185.4192,258.3091,188.0854,263.2982,183.0963,265.9645,192.87,264.75" style="stroke:#181818;stroke-width:1.0;"/></g><!--link Admin to EditarPostulante--><g id="link_Admin_EditarPostulante"><path d="M105.32,163.38 C134.54,171.99 165.7944,181.205 195.0644,189.825 " fill="none" id="Admin-to-EditarPostulante" style="stroke:#181818;stroke-width:1.0;"/><polygon fill="#181818" points="200.82,191.52,193.3166,185.1404,196.0237,190.1075,191.0566,192.8145,200.82,191.52" style="stroke:#181818;stroke-width:1.0;"/></g><!--link Admin to EliminarPostulante--><g id="link_Admin_EliminarPostulante"><path d="M105.32,144.96 C124.8,143.35 141.7603,141.9435 163.5703,140.1435 " fill="none" id="Admin-to-EliminarPostulante" style="stroke:#181818;stroke-width:1.0;"/><polygon fill="#181818" points="169.55,139.65,160.2515,136.4038,164.5669,140.0613,160.9095,144.3767,169.55,139.65" style="stroke:#181818;stroke-width:1.0;"/></g><!--link Seleccionador to ListarPostulante--><g id="link_Seleccionador_ListarPostulante"><path d="M103.83,277 C124.52,277 143.34,277 166.6,277 " fill="none" id="Seleccionador-to-ListarPostulante" style="stroke:#181818;stroke-width:1.0;"/><polygon fill="#181818" points="172.6,277,163.6,273,167.6,277,163.6,281,172.6,277" style="stroke:#181818;stroke-width:1.0;"/></g><!--SRC=[TP113i8W44Ntd6BIVQzWOjIT2sFZ0IOmLY850zCOOxoxbAfj0sxVcpzy9borlQ773b2oymq_307UARYEXA4p0plmkhqmAEr9idPMf56erghJLWVsg9ol00CayjKD6P8opl_qWWWnh4FRnWUhpV6qXOCBt1kqJ1Ky1K0VI68Oh2Vq2nsN9JYn-Vm-bie38oqdTaeN4YFzap0w_hMG-V1PwYL4EWpKzIghFPcitwIo8ZELloSMToxlVWC0]--></g></svg>