<?xml version="1.0" encoding="us-ascii" standalone="no"?><svg xmlns="http://www.w3.org/2000/svg" xmlns:xlink="http://www.w3.org/1999/xlink" contentStyleType="text/css" height="833px" preserveAspectRatio="none" style="width:679px;height:833px;background:#FFFFFF;" version="1.1" viewBox="0 0 679 833" width="679px" zoomAndPan="magnify"><defs/><g><text fill="#000000" font-family="sans-serif" font-size="14" font-weight="bold" lengthAdjust="spacing" textLength="216" x="230" y="32.6738">Detallado del Editar Postulante</text><ellipse cx="287.125" cy="56.6406" fill="#222222" rx="10" ry="10" style="stroke:#222222;stroke-width:1.0;"/><rect fill="#F1F1F1" height="33.4063" rx="12.5" ry="12.5" style="stroke:#181818;stroke-width:0.5;" width="188" x="193.125" y="86.6406"/><text fill="#000000" font-family="sans-serif" font-size="12" lengthAdjust="spacing" textLength="168" x="203.125" y="107.5039">VISTA_EDITAR_POSTULANTE</text><rect fill="none" height="650.5781" style="stroke:#000000;stroke-width:1.5;" width="657" x="11" y="130.0469"/><path d="M171,130.0469 L171,138.6875 L161,148.6875 L11,148.6875 " fill="none" style="stroke:#000000;stroke-width:1.5;"/><text fill="#000000" font-family="sans-serif" font-size="14" lengthAdjust="spacing" textLength="150" x="14" y="143.7207">ManejoEditarPostulante</text><rect fill="#F1F1F1" height="73.625" rx="12.5" ry="12.5" style="stroke:#181818;stroke-width:0.5;" width="193" x="190.625" y="165.6875"/><text fill="#000000" font-family="sans-serif" font-size="12" lengthAdjust="spacing" textLength="173" x="200.625" y="186.5508">Sistema carga datos existentes</text><text fill="#000000" font-family="sans-serif" font-size="12" lengthAdjust="spacing" textLength="140" x="200.625" y="199.957">&#8226; Busca postulante por ID</text><text fill="#000000" font-family="sans-serif" font-size="12" lengthAdjust="spacing" textLength="164" x="200.625" y="213.3633">&#8226; Carga informaci&#243;n completa</text><text fill="#000000" font-family="sans-serif" font-size="12" lengthAdjust="spacing" textLength="173" x="200.625" y="226.7695">&#8226; Muestra formulario prellenado</text><polygon fill="#F1F1F1" points="240.125,259.3125,334.125,259.3125,346.125,271.3125,334.125,283.3125,240.125,283.3125,228.125,271.3125,240.125,259.3125" style="stroke:#181818;stroke-width:0.5;"/><text fill="#000000" font-family="sans-serif" font-size="11" lengthAdjust="spacing" textLength="94" x="240.125" y="275.126">&#191;Postulante existe?</text><text fill="#000000" font-family="sans-serif" font-size="11" lengthAdjust="spacing" textLength="13" x="215.125" y="268.9814">No</text><text fill="#000000" font-family="sans-serif" font-size="11" lengthAdjust="spacing" textLength="9" x="346.125" y="268.9814">S&#237;</text><rect fill="#F1F1F1" height="73.625" rx="12.5" ry="12.5" style="stroke:#181818;stroke-width:0.5;" width="210" x="23" y="293.3125"/><text fill="#000000" font-family="sans-serif" font-size="12" lengthAdjust="spacing" textLength="95" x="33" y="314.1758">Sistema muestra</text><text fill="#000000" font-family="sans-serif" font-size="12" lengthAdjust="spacing" textLength="190" x="33" y="327.582">&#8226; Error: "Postulante no encontrado"</text><text fill="#000000" font-family="sans-serif" font-size="12" lengthAdjust="spacing" textLength="130" x="33" y="340.9883">&#8226; Opci&#243;n: "Volver a lista"</text><text fill="#000000" font-family="sans-serif" font-size="12" lengthAdjust="spacing" textLength="152" x="33" y="354.3945">&#8226; Sugerencia: "Crear nuevo"</text><rect fill="#F1F1F1" height="113.8438" rx="12.5" ry="12.5" style="stroke:#181818;stroke-width:0.5;" width="182" x="355.25" y="293.3125"/><text fill="#000000" font-family="sans-serif" font-size="12" lengthAdjust="spacing" textLength="162" x="365.25" y="314.1758">Usuario modifica informaci&#243;n</text><text fill="#000000" font-family="sans-serif" font-size="12" lengthAdjust="spacing" textLength="107" x="365.25" y="327.582">&#8226; Nombre completo</text><text fill="#000000" font-family="sans-serif" font-size="12" lengthAdjust="spacing" textLength="40" x="365.25" y="340.9883">&#8226; Email</text><text fill="#000000" font-family="sans-serif" font-size="12" lengthAdjust="spacing" textLength="60" x="365.25" y="354.3945">&#8226; Direcci&#243;n</text><text fill="#000000" font-family="sans-serif" font-size="12" lengthAdjust="spacing" textLength="65" x="365.25" y="367.8008">&#8226; Pasaporte</text><text fill="#000000" font-family="sans-serif" font-size="12" lengthAdjust="spacing" textLength="94" x="365.25" y="381.207">&#8226; Tipo de usuario</text><text fill="#000000" font-family="sans-serif" font-size="12" lengthAdjust="spacing" textLength="73" x="365.25" y="394.6133">&#8226; Contrase&#241;a</text><rect fill="#F1F1F1" height="60.2188" rx="12.5" ry="12.5" style="stroke:#181818;stroke-width:0.5;" width="152" x="370.25" y="427.1563"/><text fill="#000000" font-family="sans-serif" font-size="12" lengthAdjust="spacing" textLength="132" x="380.25" y="448.0195">Sistema valida cambios</text><text fill="#000000" font-family="sans-serif" font-size="12" lengthAdjust="spacing" textLength="114" x="380.25" y="461.4258">&#8226; Integridad de datos</text><text fill="#000000" font-family="sans-serif" font-size="12" lengthAdjust="spacing" textLength="119" x="380.25" y="474.832">&#8226; Formato de campos</text><polygon fill="#F1F1F1" points="407.75,507.375,484.75,507.375,496.75,519.375,484.75,531.375,407.75,531.375,395.75,519.375,407.75,507.375" style="stroke:#181818;stroke-width:0.5;"/><text fill="#000000" font-family="sans-serif" font-size="11" lengthAdjust="spacing" textLength="77" x="407.75" y="523.1885">&#191;Datos v&#225;lidos?</text><text fill="#000000" font-family="sans-serif" font-size="11" lengthAdjust="spacing" textLength="13" x="382.75" y="517.0439">No</text><text fill="#000000" font-family="sans-serif" font-size="11" lengthAdjust="spacing" textLength="9" x="496.75" y="517.0439">S&#237;</text><rect fill="#F1F1F1" height="73.625" rx="12.5" ry="12.5" style="stroke:#181818;stroke-width:0.5;" width="160" x="263" y="541.375"/><text fill="#000000" font-family="sans-serif" font-size="12" lengthAdjust="spacing" textLength="95" x="273" y="562.2383">Sistema muestra</text><text fill="#000000" font-family="sans-serif" font-size="12" lengthAdjust="spacing" textLength="134" x="273" y="575.6445">&#8226; Error: "Datos inv&#225;lidos"</text><text fill="#000000" font-family="sans-serif" font-size="12" lengthAdjust="spacing" textLength="138" x="273" y="589.0508">&#8226; Campos problem&#225;ticos</text><text fill="#000000" font-family="sans-serif" font-size="12" lengthAdjust="spacing" textLength="140" x="273" y="602.457">&#8226; Mantiene otros cambios</text><rect fill="#F1F1F1" height="73.625" rx="12.5" ry="12.5" style="stroke:#181818;stroke-width:0.5;" width="198" x="450.5" y="541.375"/><text fill="#000000" font-family="sans-serif" font-size="12" lengthAdjust="spacing" textLength="158" x="460.5" y="562.2383">Sistema actualiza postulante</text><text fill="#000000" font-family="sans-serif" font-size="12" lengthAdjust="spacing" textLength="137" x="460.5" y="575.6445">&#8226; Guarda cambios en BD</text><text fill="#000000" font-family="sans-serif" font-size="12" lengthAdjust="spacing" textLength="178" x="460.5" y="589.0508">&#8226; Registra fecha de modificaci&#243;n</text><text fill="#000000" font-family="sans-serif" font-size="12" lengthAdjust="spacing" textLength="124" x="460.5" y="602.457">&#8226; Auditor&#237;a de cambios</text><rect fill="#F1F1F1" height="73.625" rx="12.5" ry="12.5" style="stroke:#181818;stroke-width:0.5;" width="213" x="443" y="635"/><text fill="#000000" font-family="sans-serif" font-size="12" lengthAdjust="spacing" textLength="95" x="453" y="655.8633">Sistema muestra</text><text fill="#000000" font-family="sans-serif" font-size="12" lengthAdjust="spacing" textLength="193" x="453" y="669.2695">&#8226; Mensaje: "Postulante actualizado"</text><text fill="#000000" font-family="sans-serif" font-size="12" lengthAdjust="spacing" textLength="191" x="453" y="682.6758">&#8226; Resumen de cambios realizados</text><text fill="#000000" font-family="sans-serif" font-size="12" lengthAdjust="spacing" textLength="174" x="453" y="696.082">&#8226; Opci&#243;n: "Ver perfil actualizado"</text><polygon fill="#F1F1F1" points="446.25,714.625,458.25,726.625,446.25,738.625,434.25,726.625,446.25,714.625" style="stroke:#181818;stroke-width:0.5;"/><polygon fill="#F1F1F1" points="287.125,744.625,299.125,756.625,287.125,768.625,275.125,756.625,287.125,744.625" style="stroke:#181818;stroke-width:0.5;"/><ellipse cx="287.125" cy="811.625" fill="none" rx="11" ry="11" style="stroke:#222222;stroke-width:1.0;"/><ellipse cx="287.125" cy="811.625" fill="#222222" rx="6" ry="6" style="stroke:#222222;stroke-width:1.0;"/><line style="stroke:#181818;stroke-width:1.0;" x1="287.125" x2="287.125" y1="66.6406" y2="86.6406"/><polygon fill="#181818" points="283.125,76.6406,287.125,86.6406,291.125,76.6406,287.125,80.6406" style="stroke:#181818;stroke-width:1.0;"/><line style="stroke:#181818;stroke-width:1.0;" x1="446.25" x2="446.25" y1="407.1563" y2="427.1563"/><polygon fill="#181818" points="442.25,417.1563,446.25,427.1563,450.25,417.1563,446.25,421.1563" style="stroke:#181818;stroke-width:1.0;"/><line style="stroke:#181818;stroke-width:1.0;" x1="549.5" x2="549.5" y1="615" y2="635"/><polygon fill="#181818" points="545.5,625,549.5,635,553.5,625,549.5,629" style="stroke:#181818;stroke-width:1.0;"/><line style="stroke:#181818;stroke-width:1.0;" x1="395.75" x2="343" y1="519.375" y2="519.375"/><line style="stroke:#181818;stroke-width:1.0;" x1="343" x2="343" y1="519.375" y2="541.375"/><polygon fill="#181818" points="339,531.375,343,541.375,347,531.375,343,535.375" style="stroke:#181818;stroke-width:1.0;"/><line style="stroke:#181818;stroke-width:1.0;" x1="496.75" x2="549.5" y1="519.375" y2="519.375"/><line style="stroke:#181818;stroke-width:1.0;" x1="549.5" x2="549.5" y1="519.375" y2="541.375"/><polygon fill="#181818" points="545.5,531.375,549.5,541.375,553.5,531.375,549.5,535.375" style="stroke:#181818;stroke-width:1.0;"/><line style="stroke:#181818;stroke-width:1.0;" x1="343" x2="343" y1="615" y2="726.625"/><line style="stroke:#181818;stroke-width:1.0;" x1="343" x2="434.25" y1="726.625" y2="726.625"/><polygon fill="#181818" points="424.25,722.625,434.25,726.625,424.25,730.625,428.25,726.625" style="stroke:#181818;stroke-width:1.0;"/><line style="stroke:#181818;stroke-width:1.0;" x1="549.5" x2="549.5" y1="708.625" y2="726.625"/><line style="stroke:#181818;stroke-width:1.0;" x1="549.5" x2="458.25" y1="726.625" y2="726.625"/><polygon fill="#181818" points="468.25,722.625,458.25,726.625,468.25,730.625,464.25,726.625" style="stroke:#181818;stroke-width:1.0;"/><line style="stroke:#181818;stroke-width:1.0;" x1="446.25" x2="446.25" y1="487.375" y2="507.375"/><polygon fill="#181818" points="442.25,497.375,446.25,507.375,450.25,497.375,446.25,501.375" style="stroke:#181818;stroke-width:1.0;"/><line style="stroke:#181818;stroke-width:1.0;" x1="228.125" x2="128" y1="271.3125" y2="271.3125"/><line style="stroke:#181818;stroke-width:1.0;" x1="128" x2="128" y1="271.3125" y2="293.3125"/><polygon fill="#181818" points="124,283.3125,128,293.3125,132,283.3125,128,287.3125" style="stroke:#181818;stroke-width:1.0;"/><line style="stroke:#181818;stroke-width:1.0;" x1="346.125" x2="446.25" y1="271.3125" y2="271.3125"/><line style="stroke:#181818;stroke-width:1.0;" x1="446.25" x2="446.25" y1="271.3125" y2="293.3125"/><polygon fill="#181818" points="442.25,283.3125,446.25,293.3125,450.25,283.3125,446.25,287.3125" style="stroke:#181818;stroke-width:1.0;"/><line style="stroke:#181818;stroke-width:1.0;" x1="128" x2="128" y1="366.9375" y2="756.625"/><line style="stroke:#181818;stroke-width:1.0;" x1="128" x2="275.125" y1="756.625" y2="756.625"/><polygon fill="#181818" points="265.125,752.625,275.125,756.625,265.125,760.625,269.125,756.625" style="stroke:#181818;stroke-width:1.0;"/><line style="stroke:#181818;stroke-width:1.0;" x1="446.25" x2="446.25" y1="738.625" y2="756.625"/><line style="stroke:#181818;stroke-width:1.0;" x1="446.25" x2="299.125" y1="756.625" y2="756.625"/><polygon fill="#181818" points="309.125,752.625,299.125,756.625,309.125,760.625,305.125,756.625" style="stroke:#181818;stroke-width:1.0;"/><line style="stroke:#181818;stroke-width:1.0;" x1="287.125" x2="287.125" y1="239.3125" y2="259.3125"/><polygon fill="#181818" points="283.125,249.3125,287.125,259.3125,291.125,249.3125,287.125,253.3125" style="stroke:#181818;stroke-width:1.0;"/><line style="stroke:#181818;stroke-width:1.0;" x1="287.125" x2="287.125" y1="120.0469" y2="165.6875"/><polygon fill="#181818" points="283.125,155.6875,287.125,165.6875,291.125,155.6875,287.125,159.6875" style="stroke:#181818;stroke-width:1.0;"/><line style="stroke:#181818;stroke-width:1.0;" x1="287.125" x2="287.125" y1="768.625" y2="800.625"/><polygon fill="#181818" points="283.125,790.625,287.125,800.625,291.125,790.625,287.125,794.625" style="stroke:#181818;stroke-width:1.0;"/><!--SRC=[TLHBRjim4Dth50Eld2lOYyAntC90unYHasqmbiOE0ueZa9HHj2ZGgwJxB8eUe41ravwa8-gFj81WGUJZcpTl7ksLrmGnUTGQCuQCD6movT72dfqlDHfFKUHamKVHuc6R75QFctXxMDqzxc-Jm_t7rUwmMKPH8G3b5HkuGKFFt90C7F0b0f1daIZdAKT8qPuHClJiW3xLYu9oWlZpxJjSbov5A8RJ1LlOnktkEXnLviGsnrHLFmsad1TQkcWHDoKvRn5gX31OnL1OqfgCDBbibAWJp7__6YbiLBox0lz41kOxlXBKI77Ua8R5kiZ6MhOBc8qe30EPb8t0CfxroDiYg1Ji0-iBMK3GGee38YdFPEMeGW6jBOd_fgGBpvO18Z-a7S4ygLvRLVUk37tbdAcJIgT-zBmxpe-MEdjuq9wZqlrNh2obquDxT2Yco_2xbOCgwdn0sHJkrzUXNKVL3-p5Zboxe5PPFUxygDZrfxPYrzdAJbPpXXZqU-_hFdme9iSa1IFUPcfnYCsbUX5kTcz6zf-XJSVMS2ZJiSn6c7KeAvdXewQyUl4gRVMr-P9fAp84xAtWskQMBIAy9lCQRqpaOUfBCUZpEEmzggxqGSmUx9DqmNKy0TpHMJLPf_G9Qy-wH0m3xR2hKcubs-eLMs_7glybR-fUspiPXyyq3NxVHnVxGPuhSr4zr0D9TuDq4-JeaiWDASYUb9xmlX4wiTj8q_rTQJ-Yh_LV5nT_0G00]--></g></svg>