<?xml version="1.0" encoding="us-ascii" standalone="no"?><svg xmlns="http://www.w3.org/2000/svg" xmlns:xlink="http://www.w3.org/1999/xlink" contentStyleType="text/css" height="1007px" preserveAspectRatio="none" style="width:1144px;height:1007px;background:#FFFFFF;" version="1.1" viewBox="0 0 1144 1007" width="1144px" zoomAndPan="magnify"><defs/><g><text fill="#000000" font-family="sans-serif" font-size="14" font-weight="bold" lengthAdjust="spacing" textLength="171" x="485" y="32.6738">Detallado del Editar Test</text><ellipse cx="382.4375" cy="56.6406" fill="#222222" rx="10" ry="10" style="stroke:#222222;stroke-width:1.0;"/><rect fill="#F1F1F1" height="33.4063" rx="12.5" ry="12.5" style="stroke:#181818;stroke-width:0.5;" width="139" x="312.9375" y="86.6406"/><text fill="#000000" font-family="sans-serif" font-size="12" lengthAdjust="spacing" textLength="119" x="322.9375" y="107.5039">VISTA_EDITAR_TEST</text><rect fill="none" height="824.7969" style="stroke:#000000;stroke-width:1.5;" width="1122" x="11" y="130.0469"/><path d="M132,130.0469 L132,138.6875 L122,148.6875 L11,148.6875 " fill="none" style="stroke:#000000;stroke-width:1.5;"/><text fill="#000000" font-family="sans-serif" font-size="14" lengthAdjust="spacing" textLength="111" x="14" y="143.7207">ManejoEditarTest</text><rect fill="#F1F1F1" height="73.625" rx="12.5" ry="12.5" style="stroke:#181818;stroke-width:0.5;" width="193" x="285.9375" y="165.6875"/><text fill="#000000" font-family="sans-serif" font-size="12" lengthAdjust="spacing" textLength="155" x="295.9375" y="186.5508">Sistema carga test existente</text><text fill="#000000" font-family="sans-serif" font-size="12" lengthAdjust="spacing" textLength="102" x="295.9375" y="199.957">&#8226; Busca test por ID</text><text fill="#000000" font-family="sans-serif" font-size="12" lengthAdjust="spacing" textLength="164" x="295.9375" y="213.3633">&#8226; Verifica permisos de edici&#243;n</text><text fill="#000000" font-family="sans-serif" font-size="12" lengthAdjust="spacing" textLength="173" x="295.9375" y="226.7695">&#8226; Carga configuraci&#243;n completa</text><polygon fill="#F1F1F1" points="349.9375,259.3125,414.9375,259.3125,426.9375,271.3125,414.9375,283.3125,349.9375,283.3125,337.9375,271.3125,349.9375,259.3125" style="stroke:#181818;stroke-width:0.5;"/><text fill="#000000" font-family="sans-serif" font-size="11" lengthAdjust="spacing" textLength="65" x="349.9375" y="275.126">&#191;Test existe?</text><text fill="#000000" font-family="sans-serif" font-size="11" lengthAdjust="spacing" textLength="13" x="324.9375" y="268.9814">No</text><text fill="#000000" font-family="sans-serif" font-size="11" lengthAdjust="spacing" textLength="9" x="426.9375" y="268.9814">S&#237;</text><rect fill="#F1F1F1" height="73.625" rx="12.5" ry="12.5" style="stroke:#181818;stroke-width:0.5;" width="195" x="23" y="293.3125"/><text fill="#000000" font-family="sans-serif" font-size="12" lengthAdjust="spacing" textLength="95" x="33" y="314.1758">Sistema muestra</text><text fill="#000000" font-family="sans-serif" font-size="12" lengthAdjust="spacing" textLength="155" x="33" y="327.582">&#8226; Error: "Test no encontrado"</text><text fill="#000000" font-family="sans-serif" font-size="12" lengthAdjust="spacing" textLength="130" x="33" y="340.9883">&#8226; Opci&#243;n: "Volver a lista"</text><text fill="#000000" font-family="sans-serif" font-size="12" lengthAdjust="spacing" textLength="175" x="33" y="354.3945">&#8226; Sugerencia: "Crear nuevo test"</text><rect fill="#F1F1F1" height="60.2188" rx="12.5" ry="12.5" style="stroke:#181818;stroke-width:0.5;" width="217" x="565.875" y="293.3125"/><text fill="#000000" font-family="sans-serif" font-size="12" lengthAdjust="spacing" textLength="171" x="575.875" y="314.1758">Sistema verifica estado del test</text><text fill="#000000" font-family="sans-serif" font-size="12" lengthAdjust="spacing" textLength="156" x="575.875" y="327.582">&#8226; Borrador: edici&#243;n completa</text><text fill="#000000" font-family="sans-serif" font-size="12" lengthAdjust="spacing" textLength="197" x="575.875" y="340.9883">&#8226; Activo con resultados: limitaciones</text><polygon fill="#F1F1F1" points="617.875,386.9375,730.875,386.9375,742.875,398.9375,730.875,410.9375,617.875,410.9375,605.875,398.9375,617.875,386.9375" style="stroke:#181818;stroke-width:0.5;"/><text fill="#000000" font-family="sans-serif" font-size="11" lengthAdjust="spacing" textLength="113" x="617.875" y="402.751">&#191;Test tiene resultados?</text><text fill="#000000" font-family="sans-serif" font-size="11" lengthAdjust="spacing" textLength="9" x="596.875" y="396.6064">S&#237;</text><text fill="#000000" font-family="sans-serif" font-size="11" lengthAdjust="spacing" textLength="92" x="742.875" y="396.6064">No - Sin resultados</text><rect fill="#F1F1F1" height="113.8438" rx="12.5" ry="12.5" style="stroke:#181818;stroke-width:0.5;" width="242" x="313.75" y="420.9375"/><text fill="#000000" font-family="sans-serif" font-size="12" lengthAdjust="spacing" textLength="161" x="323.75" y="441.8008">Sistema muestra advertencia</text><text fill="#000000" font-family="sans-serif" font-size="12" lengthAdjust="spacing" textLength="198" x="323.75" y="455.207">&#8226; "Test tiene resultados registrados"</text><text fill="#000000" font-family="sans-serif" font-size="12" lengthAdjust="spacing" textLength="222" x="323.75" y="468.6133">&#8226; "Cambios pueden afectar estad&#237;sticas"</text><text fill="#000000" font-family="sans-serif" font-size="12" lengthAdjust="spacing" textLength="118" x="323.75" y="482.0195">&#8226; Opciones limitadas:</text><text fill="#000000" font-family="sans-serif" font-size="12" lengthAdjust="spacing" textLength="96" x="329.75" y="495.4258">- Cambiar estado</text><text fill="#000000" font-family="sans-serif" font-size="12" lengthAdjust="spacing" textLength="123" x="329.75" y="508.832">- Modificar descripci&#243;n</text><text fill="#000000" font-family="sans-serif" font-size="12" lengthAdjust="spacing" textLength="160" x="329.75" y="522.2383">- Duplicar para nueva versi&#243;n</text><polygon fill="#F1F1F1" points="362.25,569.7813,507.25,569.7813,519.25,581.7813,507.25,593.7813,362.25,593.7813,350.25,581.7813,362.25,569.7813" style="stroke:#181818;stroke-width:0.5;"/><text fill="#000000" font-family="sans-serif" font-size="11" lengthAdjust="spacing" textLength="145" x="362.25" y="585.5947">&#191;Adiminstrador elige duplicar?</text><text fill="#000000" font-family="sans-serif" font-size="11" lengthAdjust="spacing" textLength="9" x="341.25" y="579.4502">S&#237;</text><text fill="#000000" font-family="sans-serif" font-size="11" lengthAdjust="spacing" textLength="13" x="519.25" y="579.4502">No</text><rect fill="#F1F1F1" height="87.0313" rx="12.5" ry="12.5" style="stroke:#181818;stroke-width:0.5;" width="182" x="228" y="603.7813"/><text fill="#000000" font-family="sans-serif" font-size="12" lengthAdjust="spacing" textLength="106" x="238" y="624.6445">Sistema crea copia</text><text fill="#000000" font-family="sans-serif" font-size="12" lengthAdjust="spacing" textLength="113" x="238" y="638.0508">&#8226; Nuevo ID asignado</text><text fill="#000000" font-family="sans-serif" font-size="12" lengthAdjust="spacing" textLength="109" x="238" y="651.457">&#8226; Estado: "Borrador"</text><text fill="#000000" font-family="sans-serif" font-size="12" lengthAdjust="spacing" textLength="93" x="238" y="664.8633">&#8226; Sufijo: "- Copia"</text><text fill="#000000" font-family="sans-serif" font-size="12" lengthAdjust="spacing" textLength="162" x="238" y="678.2695">&#8226; Redirige a edici&#243;n completa</text><rect fill="#F1F1F1" height="60.2188" rx="12.5" ry="12.5" style="stroke:#181818;stroke-width:0.5;" width="241" x="430" y="603.7813"/><text fill="#000000" font-family="sans-serif" font-size="12" lengthAdjust="spacing" textLength="221" x="440" y="624.6445">Administrador realiza cambios limitados</text><text fill="#000000" font-family="sans-serif" font-size="12" lengthAdjust="spacing" textLength="143" x="440" y="638.0508">&#8226; Solo campos permitidos</text><text fill="#000000" font-family="sans-serif" font-size="12" lengthAdjust="spacing" textLength="139" x="440" y="651.457">&#8226; Sin modificar preguntas</text><polygon fill="#F1F1F1" points="434.75,696.8125,446.75,708.8125,434.75,720.8125,422.75,708.8125,434.75,696.8125" style="stroke:#181818;stroke-width:0.5;"/><rect fill="#F1F1F1" height="87.0313" rx="12.5" ry="12.5" style="stroke:#181818;stroke-width:0.5;" width="231" x="798.5" y="420.9375"/><text fill="#000000" font-family="sans-serif" font-size="12" lengthAdjust="spacing" textLength="211" x="808.5" y="441.8008">Administrador puede editar libremente</text><text fill="#000000" font-family="sans-serif" font-size="12" lengthAdjust="spacing" textLength="156" x="808.5" y="455.207">&#8226; Informaci&#243;n b&#225;sica del test</text><text fill="#000000" font-family="sans-serif" font-size="12" lengthAdjust="spacing" textLength="158" x="808.5" y="468.6133">&#8226; Agregar/eliminar preguntas</text><text fill="#000000" font-family="sans-serif" font-size="12" lengthAdjust="spacing" textLength="177" x="808.5" y="482.0195">&#8226; Modificar respuestas correctas</text><text fill="#000000" font-family="sans-serif" font-size="12" lengthAdjust="spacing" textLength="166" x="808.5" y="495.4258">&#8226; Cambiar puntajes y duraci&#243;n</text><rect fill="#F1F1F1" height="73.625" rx="12.5" ry="12.5" style="stroke:#181818;stroke-width:0.5;" width="160" x="834" y="542.9688"/><text fill="#000000" font-family="sans-serif" font-size="12" lengthAdjust="spacing" textLength="132" x="844" y="563.832">Sistema valida cambios</text><text fill="#000000" font-family="sans-serif" font-size="12" lengthAdjust="spacing" textLength="140" x="844" y="577.2383">&#8226; Coherencia de puntajes</text><text fill="#000000" font-family="sans-serif" font-size="12" lengthAdjust="spacing" textLength="139" x="844" y="590.6445">&#8226; Integridad de preguntas</text><text fill="#000000" font-family="sans-serif" font-size="12" lengthAdjust="spacing" textLength="117" x="844" y="604.0508">&#8226; Duraci&#243;n apropiada</text><polygon fill="#F1F1F1" points="869,651.5938,959,651.5938,971,663.5938,959,675.5938,869,675.5938,857,663.5938,869,651.5938" style="stroke:#181818;stroke-width:0.5;"/><text fill="#000000" font-family="sans-serif" font-size="11" lengthAdjust="spacing" textLength="90" x="869" y="667.4072">&#191;Cambios v&#225;lidos?</text><text fill="#000000" font-family="sans-serif" font-size="11" lengthAdjust="spacing" textLength="13" x="844" y="661.2627">No</text><text fill="#000000" font-family="sans-serif" font-size="11" lengthAdjust="spacing" textLength="9" x="971" y="661.2627">S&#237;</text><rect fill="#F1F1F1" height="73.625" rx="12.5" ry="12.5" style="stroke:#181818;stroke-width:0.5;" width="191" x="711" y="685.5938"/><text fill="#000000" font-family="sans-serif" font-size="12" lengthAdjust="spacing" textLength="95" x="721" y="706.457">Sistema muestra</text><text fill="#000000" font-family="sans-serif" font-size="12" lengthAdjust="spacing" textLength="171" x="721" y="719.8633">&#8226; Error: "Configuraci&#243;n inv&#225;lida"</text><text fill="#000000" font-family="sans-serif" font-size="12" lengthAdjust="spacing" textLength="120" x="721" y="733.2695">&#8226; Detalles espec&#237;ficos</text><text fill="#000000" font-family="sans-serif" font-size="12" lengthAdjust="spacing" textLength="158" x="721" y="746.6758">&#8226; Mantiene formulario abierto</text><rect fill="#F1F1F1" height="73.625" rx="12.5" ry="12.5" style="stroke:#181818;stroke-width:0.5;" width="199" x="922" y="685.5938"/><text fill="#000000" font-family="sans-serif" font-size="12" lengthAdjust="spacing" textLength="120" x="932" y="706.457">Sistema actualiza test</text><text fill="#000000" font-family="sans-serif" font-size="12" lengthAdjust="spacing" textLength="137" x="932" y="719.8633">&#8226; Guarda cambios en BD</text><text fill="#000000" font-family="sans-serif" font-size="12" lengthAdjust="spacing" textLength="179" x="932" y="733.2695">&#8226; Actualiza fecha de modificaci&#243;n</text><text fill="#000000" font-family="sans-serif" font-size="12" lengthAdjust="spacing" textLength="174" x="932" y="746.6758">&#8226; Registra auditor&#237;a de cambios</text><rect fill="#F1F1F1" height="73.625" rx="12.5" ry="12.5" style="stroke:#181818;stroke-width:0.5;" width="198" x="922.5" y="779.2188"/><text fill="#000000" font-family="sans-serif" font-size="12" lengthAdjust="spacing" textLength="169" x="932.5" y="800.082">Sistema muestra confirmaci&#243;n</text><text fill="#000000" font-family="sans-serif" font-size="12" lengthAdjust="spacing" textLength="158" x="932.5" y="813.4883">&#8226; Mensaje: "Test actualizado"</text><text fill="#000000" font-family="sans-serif" font-size="12" lengthAdjust="spacing" textLength="131" x="932.5" y="826.8945">&#8226; Resumen de cambios</text><text fill="#000000" font-family="sans-serif" font-size="12" lengthAdjust="spacing" textLength="178" x="932.5" y="840.3008">&#8226; Opciones: Vista previa/Publicar</text><polygon fill="#F1F1F1" points="914,858.8438,926,870.8438,914,882.8438,902,870.8438,914,858.8438" style="stroke:#181818;stroke-width:0.5;"/><polygon fill="#F1F1F1" points="674.375,888.8438,686.375,900.8438,674.375,912.8438,662.375,900.8438,674.375,888.8438" style="stroke:#181818;stroke-width:0.5;"/><polygon fill="#F1F1F1" points="382.4375,918.8438,394.4375,930.8438,382.4375,942.8438,370.4375,930.8438,382.4375,918.8438" style="stroke:#181818;stroke-width:0.5;"/><ellipse cx="382.4375" cy="985.8438" fill="none" rx="11" ry="11" style="stroke:#222222;stroke-width:1.0;"/><ellipse cx="382.4375" cy="985.8438" fill="#222222" rx="6" ry="6" style="stroke:#222222;stroke-width:1.0;"/><line style="stroke:#181818;stroke-width:1.0;" x1="382.4375" x2="382.4375" y1="66.6406" y2="86.6406"/><polygon fill="#181818" points="378.4375,76.6406,382.4375,86.6406,386.4375,76.6406,382.4375,80.6406" style="stroke:#181818;stroke-width:1.0;"/><line style="stroke:#181818;stroke-width:1.0;" x1="350.25" x2="319" y1="581.7813" y2="581.7813"/><line style="stroke:#181818;stroke-width:1.0;" x1="319" x2="319" y1="581.7813" y2="603.7813"/><polygon fill="#181818" points="315,593.7813,319,603.7813,323,593.7813,319,597.7813" style="stroke:#181818;stroke-width:1.0;"/><line style="stroke:#181818;stroke-width:1.0;" x1="519.25" x2="550.5" y1="581.7813" y2="581.7813"/><line style="stroke:#181818;stroke-width:1.0;" x1="550.5" x2="550.5" y1="581.7813" y2="603.7813"/><polygon fill="#181818" points="546.5,593.7813,550.5,603.7813,554.5,593.7813,550.5,597.7813" style="stroke:#181818;stroke-width:1.0;"/><line style="stroke:#181818;stroke-width:1.0;" x1="319" x2="319" y1="690.8125" y2="708.8125"/><line style="stroke:#181818;stroke-width:1.0;" x1="319" x2="422.75" y1="708.8125" y2="708.8125"/><polygon fill="#181818" points="412.75,704.8125,422.75,708.8125,412.75,712.8125,416.75,708.8125" style="stroke:#181818;stroke-width:1.0;"/><line style="stroke:#181818;stroke-width:1.0;" x1="550.5" x2="550.5" y1="664" y2="708.8125"/><line style="stroke:#181818;stroke-width:1.0;" x1="550.5" x2="446.75" y1="708.8125" y2="708.8125"/><polygon fill="#181818" points="456.75,704.8125,446.75,708.8125,456.75,712.8125,452.75,708.8125" style="stroke:#181818;stroke-width:1.0;"/><line style="stroke:#181818;stroke-width:1.0;" x1="434.75" x2="434.75" y1="534.7813" y2="569.7813"/><polygon fill="#181818" points="430.75,559.7813,434.75,569.7813,438.75,559.7813,434.75,563.7813" style="stroke:#181818;stroke-width:1.0;"/><line style="stroke:#181818;stroke-width:1.0;" x1="914" x2="914" y1="507.9688" y2="542.9688"/><polygon fill="#181818" points="910,532.9688,914,542.9688,918,532.9688,914,536.9688" style="stroke:#181818;stroke-width:1.0;"/><line style="stroke:#181818;stroke-width:1.0;" x1="1021.5" x2="1021.5" y1="759.2188" y2="779.2188"/><polygon fill="#181818" points="1017.5,769.2188,1021.5,779.2188,1025.5,769.2188,1021.5,773.2188" style="stroke:#181818;stroke-width:1.0;"/><line style="stroke:#181818;stroke-width:1.0;" x1="857" x2="806.5" y1="663.5938" y2="663.5938"/><line style="stroke:#181818;stroke-width:1.0;" x1="806.5" x2="806.5" y1="663.5938" y2="685.5938"/><polygon fill="#181818" points="802.5,675.5938,806.5,685.5938,810.5,675.5938,806.5,679.5938" style="stroke:#181818;stroke-width:1.0;"/><line style="stroke:#181818;stroke-width:1.0;" x1="971" x2="1021.5" y1="663.5938" y2="663.5938"/><line style="stroke:#181818;stroke-width:1.0;" x1="1021.5" x2="1021.5" y1="663.5938" y2="685.5938"/><polygon fill="#181818" points="1017.5,675.5938,1021.5,685.5938,1025.5,675.5938,1021.5,679.5938" style="stroke:#181818;stroke-width:1.0;"/><line style="stroke:#181818;stroke-width:1.0;" x1="806.5" x2="806.5" y1="759.2188" y2="870.8438"/><line style="stroke:#181818;stroke-width:1.0;" x1="806.5" x2="902" y1="870.8438" y2="870.8438"/><polygon fill="#181818" points="892,866.8438,902,870.8438,892,874.8438,896,870.8438" style="stroke:#181818;stroke-width:1.0;"/><line style="stroke:#181818;stroke-width:1.0;" x1="1021.5" x2="1021.5" y1="852.8438" y2="870.8438"/><line style="stroke:#181818;stroke-width:1.0;" x1="1021.5" x2="926" y1="870.8438" y2="870.8438"/><polygon fill="#181818" points="936,866.8438,926,870.8438,936,874.8438,932,870.8438" style="stroke:#181818;stroke-width:1.0;"/><line style="stroke:#181818;stroke-width:1.0;" x1="914" x2="914" y1="616.5938" y2="651.5938"/><polygon fill="#181818" points="910,641.5938,914,651.5938,918,641.5938,914,645.5938" style="stroke:#181818;stroke-width:1.0;"/><line style="stroke:#181818;stroke-width:1.0;" x1="605.875" x2="434.75" y1="398.9375" y2="398.9375"/><line style="stroke:#181818;stroke-width:1.0;" x1="434.75" x2="434.75" y1="398.9375" y2="420.9375"/><polygon fill="#181818" points="430.75,410.9375,434.75,420.9375,438.75,410.9375,434.75,414.9375" style="stroke:#181818;stroke-width:1.0;"/><line style="stroke:#181818;stroke-width:1.0;" x1="742.875" x2="914" y1="398.9375" y2="398.9375"/><line style="stroke:#181818;stroke-width:1.0;" x1="914" x2="914" y1="398.9375" y2="420.9375"/><polygon fill="#181818" points="910,410.9375,914,420.9375,918,410.9375,914,414.9375" style="stroke:#181818;stroke-width:1.0;"/><line style="stroke:#181818;stroke-width:1.0;" x1="434.75" x2="434.75" y1="720.8125" y2="900.8438"/><line style="stroke:#181818;stroke-width:1.0;" x1="434.75" x2="662.375" y1="900.8438" y2="900.8438"/><polygon fill="#181818" points="652.375,896.8438,662.375,900.8438,652.375,904.8438,656.375,900.8438" style="stroke:#181818;stroke-width:1.0;"/><line style="stroke:#181818;stroke-width:1.0;" x1="914" x2="914" y1="882.8438" y2="900.8438"/><line style="stroke:#181818;stroke-width:1.0;" x1="914" x2="686.375" y1="900.8438" y2="900.8438"/><polygon fill="#181818" points="696.375,896.8438,686.375,900.8438,696.375,904.8438,692.375,900.8438" style="stroke:#181818;stroke-width:1.0;"/><line style="stroke:#181818;stroke-width:1.0;" x1="674.375" x2="674.375" y1="353.5313" y2="386.9375"/><polygon fill="#181818" points="670.375,376.9375,674.375,386.9375,678.375,376.9375,674.375,380.9375" style="stroke:#181818;stroke-width:1.0;"/><line style="stroke:#181818;stroke-width:1.0;" x1="337.9375" x2="120.5" y1="271.3125" y2="271.3125"/><line style="stroke:#181818;stroke-width:1.0;" x1="120.5" x2="120.5" y1="271.3125" y2="293.3125"/><polygon fill="#181818" points="116.5,283.3125,120.5,293.3125,124.5,283.3125,120.5,287.3125" style="stroke:#181818;stroke-width:1.0;"/><line style="stroke:#181818;stroke-width:1.0;" x1="426.9375" x2="674.375" y1="271.3125" y2="271.3125"/><line style="stroke:#181818;stroke-width:1.0;" x1="674.375" x2="674.375" y1="271.3125" y2="293.3125"/><polygon fill="#181818" points="670.375,283.3125,674.375,293.3125,678.375,283.3125,674.375,287.3125" style="stroke:#181818;stroke-width:1.0;"/><line style="stroke:#181818;stroke-width:1.0;" x1="120.5" x2="120.5" y1="366.9375" y2="930.8438"/><line style="stroke:#181818;stroke-width:1.0;" x1="120.5" x2="370.4375" y1="930.8438" y2="930.8438"/><polygon fill="#181818" points="360.4375,926.8438,370.4375,930.8438,360.4375,934.8438,364.4375,930.8438" style="stroke:#181818;stroke-width:1.0;"/><line style="stroke:#181818;stroke-width:1.0;" x1="674.375" x2="674.375" y1="912.8438" y2="930.8438"/><line style="stroke:#181818;stroke-width:1.0;" x1="674.375" x2="394.4375" y1="930.8438" y2="930.8438"/><polygon fill="#181818" points="404.4375,926.8438,394.4375,930.8438,404.4375,934.8438,400.4375,930.8438" style="stroke:#181818;stroke-width:1.0;"/><line style="stroke:#181818;stroke-width:1.0;" x1="382.4375" x2="382.4375" y1="239.3125" y2="259.3125"/><polygon fill="#181818" points="378.4375,249.3125,382.4375,259.3125,386.4375,249.3125,382.4375,253.3125" style="stroke:#181818;stroke-width:1.0;"/><line style="stroke:#181818;stroke-width:1.0;" x1="382.4375" x2="382.4375" y1="120.0469" y2="165.6875"/><polygon fill="#181818" points="378.4375,155.6875,382.4375,165.6875,386.4375,155.6875,382.4375,159.6875" style="stroke:#181818;stroke-width:1.0;"/><line style="stroke:#181818;stroke-width:1.0;" x1="382.4375" x2="382.4375" y1="942.8438" y2="974.8438"/><polygon fill="#181818" points="378.4375,964.8438,382.4375,974.8438,386.4375,964.8438,382.4375,968.8438" style="stroke:#181818;stroke-width:1.0;"/><!--SRC=[ZLRDRXen4Bxp52DEoQ7g7GuL0LHnI5e5n3KoksRZo6kl_8FweqfzbVJEgGzGgRn9dwGpNjkx2rIg5C6oy-Dlllbc72USvB3WZad9IWqbbx0iXMC6DjowqSZY8tvDjglrPlQqNAmsiyUdpNAzcOv63Pg44rh1FLFyHRU150TVHm3uDraBwtZDe62cOk38n3_HE-Kuslzy_m5ttXRHr6W3gqLyl-L6x0MQ6cvgORL5SC1BKOZJJnLzvY5jeTLULDwmOCAVTIEneccBGUpXvlUlJNVqkrjmprp1pOE-HNiFPUtHox3maj8lZT5c0kCGh3HmXKUXGwd7sUT34qv5hwsM1sw0WSHqhFDO-ueR31KCdUQ68xVAyuCEDO-dmGy_kBGSRjQdunceG-81lLEBA3BdlzE6827Gn4wc8FlC2YVmH8GFXbilAPET8D8QMrPW2xdDGE97ZpSdkEAzmCnWHdj98h0IaRjGTtGX8EEh2V6n4ZOmQyTzxpchTmBjZUSb7iZsl21j1YfEH-kGbq40TOEAYPMLp4wY5U0DX6mfNFSCzxeC71jarnP6D4baoM7X6ndig7aMsXSQOybj6ltYLylRh4G0gYq93vIYub369DVewyyAIWGxrMJUsj8UWcPM2s1MLAgFFqWrb8G2IseO3ynhlnSlP4OIAFFG-eZ2COIGNKfecZtZGwlJD3i1-Qp4MaKg5k5ByOLclkrTR8MsGqHQQd9fgBiquKvSk0W5TUvCWnhnoZ5xYKYXJxy92I8sZd9qEijY7I8EwgBIILjIx0oluu9AK5PghqqT5ypkz6ff80UJ6EUiGfJClELKjEgZxZbrQaDa3OqBiyYtCIJklcFIQqCPNb3Ldr53SSsTgQvR5qX-cSdl9zFFSGtH8aqf1pKwNXaCBeF35U2Bl6DPOqX69Rig_ZIrXzEh5FrzCL3DjQrxldddmzKkL9loJB_j_ONy89syE1sHt3CfuGNLxXngevVC20ri9t11wNy8_FfiiiBvLjsznhT7lFVCTCIZAE5kCN2OvLZSOi-X2qdTmtNJZcIx485vbAKsfsC8YDalC5_Pl-5MJ9eTai6LnTwdYotNbAwr3eFrE0YzSmVcj6idiAKBZnHp4EpjHxyBM-u_nZI_67K_Hj_edmxT_0K0]--></g></svg>