<?xml version="1.0" encoding="us-ascii" standalone="no"?><svg xmlns="http://www.w3.org/2000/svg" xmlns:xlink="http://www.w3.org/1999/xlink" contentStyleType="text/css" height="608px" preserveAspectRatio="none" style="width:455px;height:608px;background:#FFFFFF;" version="1.1" viewBox="0 0 455 608" width="455px" zoomAndPan="magnify"><defs/><g><text fill="#000000" font-family="sans-serif" font-size="14" font-weight="bold" lengthAdjust="spacing" textLength="246" x="103" y="32.6738">Detallado del Eliminar Capacitaci&#243;n</text><ellipse cx="215.25" cy="56.6406" fill="#222222" rx="10" ry="10" style="stroke:#222222;stroke-width:1.0;"/><rect fill="#F1F1F1" height="33.4063" rx="12.5" ry="12.5" style="stroke:#181818;stroke-width:0.5;" width="208" x="111.25" y="86.6406"/><text fill="#000000" font-family="sans-serif" font-size="12" lengthAdjust="spacing" textLength="188" x="121.25" y="107.5039">VISTA_ELIMINAR_CAPACITACION</text><rect fill="none" height="425.9219" style="stroke:#000000;stroke-width:1.5;" width="433" x="11" y="130.0469"/><path d="M199,130.0469 L199,138.6875 L189,148.6875 L11,148.6875 " fill="none" style="stroke:#000000;stroke-width:1.5;"/><text fill="#000000" font-family="sans-serif" font-size="14" lengthAdjust="spacing" textLength="178" x="14" y="143.7207">ManejoEliminarCapacitacion</text><rect fill="#F1F1F1" height="60.2188" rx="12.5" ry="12.5" style="stroke:#181818;stroke-width:0.5;" width="232" x="99.25" y="165.6875"/><text fill="#000000" font-family="sans-serif" font-size="12" lengthAdjust="spacing" textLength="212" x="109.25" y="186.5508">Administrador selecciona capacitaci&#243;n</text><text fill="#000000" font-family="sans-serif" font-size="12" lengthAdjust="spacing" textLength="149" x="109.25" y="199.957">&#8226; Desde lista o vista detalle</text><text fill="#000000" font-family="sans-serif" font-size="12" lengthAdjust="spacing" textLength="132" x="109.25" y="213.3633">&#8226; Hace clic en "Eliminar"</text><rect fill="#F1F1F1" height="73.625" rx="12.5" ry="12.5" style="stroke:#181818;stroke-width:0.5;" width="189" x="120.75" y="245.9063"/><text fill="#000000" font-family="sans-serif" font-size="12" lengthAdjust="spacing" textLength="169" x="130.75" y="266.7695">Sistema muestra confirmaci&#243;n</text><text fill="#000000" font-family="sans-serif" font-size="12" lengthAdjust="spacing" textLength="153" x="130.75" y="280.1758">&#8226; Pregunta: "&#191;Est&#225; seguro?"</text><text fill="#000000" font-family="sans-serif" font-size="12" lengthAdjust="spacing" textLength="156" x="130.75" y="293.582">&#8226; Detalles de la capacitaci&#243;n</text><text fill="#000000" font-family="sans-serif" font-size="12" lengthAdjust="spacing" textLength="168" x="130.75" y="306.9883">&#8226; Botones: Confirmar/Cancelar</text><polygon fill="#F1F1F1" points="153.25,339.5313,277.25,339.5313,289.25,351.5313,277.25,363.5313,153.25,363.5313,141.25,351.5313,153.25,339.5313" style="stroke:#181818;stroke-width:0.5;"/><text fill="#000000" font-family="sans-serif" font-size="11" lengthAdjust="spacing" textLength="124" x="153.25" y="355.3447">&#191;Administrador confirma?</text><text fill="#000000" font-family="sans-serif" font-size="11" lengthAdjust="spacing" textLength="13" x="128.25" y="349.2002">No</text><text fill="#000000" font-family="sans-serif" font-size="11" lengthAdjust="spacing" textLength="9" x="289.25" y="349.2002">S&#237;</text><rect fill="#F1F1F1" height="46.8125" rx="12.5" ry="12.5" style="stroke:#181818;stroke-width:0.5;" width="170" x="23" y="373.5313"/><text fill="#000000" font-family="sans-serif" font-size="12" lengthAdjust="spacing" textLength="150" x="33" y="394.3945">Sistema cancela operaci&#243;n</text><text fill="#000000" font-family="sans-serif" font-size="12" lengthAdjust="spacing" textLength="127" x="33" y="407.8008">&#8226; Vuelve a vista anterior</text><rect fill="#F1F1F1" height="60.2188" rx="12.5" ry="12.5" style="stroke:#181818;stroke-width:0.5;" width="182" x="231.5" y="373.5313"/><text fill="#000000" font-family="sans-serif" font-size="12" lengthAdjust="spacing" textLength="162" x="241.5" y="394.3945">Sistema elimina capacitaci&#243;n</text><text fill="#000000" font-family="sans-serif" font-size="12" lengthAdjust="spacing" textLength="137" x="241.5" y="407.8008">&#8226; Borra de base de datos</text><text fill="#000000" font-family="sans-serif" font-size="12" lengthAdjust="spacing" textLength="160" x="241.5" y="421.207">&#8226; Registra en log de auditor&#237;a</text><rect fill="#F1F1F1" height="60.2188" rx="12.5" ry="12.5" style="stroke:#181818;stroke-width:0.5;" width="219" x="213" y="453.75"/><text fill="#000000" font-family="sans-serif" font-size="12" lengthAdjust="spacing" textLength="95" x="223" y="474.6133">Sistema muestra</text><text fill="#000000" font-family="sans-serif" font-size="12" lengthAdjust="spacing" textLength="199" x="223" y="488.0195">&#8226; Mensaje: "Capacitaci&#243;n eliminada"</text><text fill="#000000" font-family="sans-serif" font-size="12" lengthAdjust="spacing" textLength="82" x="223" y="501.4258">&#8226; Actualiza lista</text><polygon fill="#F1F1F1" points="215.25,519.9688,227.25,531.9688,215.25,543.9688,203.25,531.9688,215.25,519.9688" style="stroke:#181818;stroke-width:0.5;"/><ellipse cx="215.25" cy="586.9688" fill="none" rx="11" ry="11" style="stroke:#222222;stroke-width:1.0;"/><ellipse cx="215.25" cy="586.9688" fill="#222222" rx="6" ry="6" style="stroke:#222222;stroke-width:1.0;"/><line style="stroke:#181818;stroke-width:1.0;" x1="215.25" x2="215.25" y1="66.6406" y2="86.6406"/><polygon fill="#181818" points="211.25,76.6406,215.25,86.6406,219.25,76.6406,215.25,80.6406" style="stroke:#181818;stroke-width:1.0;"/><line style="stroke:#181818;stroke-width:1.0;" x1="215.25" x2="215.25" y1="225.9063" y2="245.9063"/><polygon fill="#181818" points="211.25,235.9063,215.25,245.9063,219.25,235.9063,215.25,239.9063" style="stroke:#181818;stroke-width:1.0;"/><line style="stroke:#181818;stroke-width:1.0;" x1="322.5" x2="322.5" y1="433.75" y2="453.75"/><polygon fill="#181818" points="318.5,443.75,322.5,453.75,326.5,443.75,322.5,447.75" style="stroke:#181818;stroke-width:1.0;"/><line style="stroke:#181818;stroke-width:1.0;" x1="141.25" x2="108" y1="351.5313" y2="351.5313"/><line style="stroke:#181818;stroke-width:1.0;" x1="108" x2="108" y1="351.5313" y2="373.5313"/><polygon fill="#181818" points="104,363.5313,108,373.5313,112,363.5313,108,367.5313" style="stroke:#181818;stroke-width:1.0;"/><line style="stroke:#181818;stroke-width:1.0;" x1="289.25" x2="322.5" y1="351.5313" y2="351.5313"/><line style="stroke:#181818;stroke-width:1.0;" x1="322.5" x2="322.5" y1="351.5313" y2="373.5313"/><polygon fill="#181818" points="318.5,363.5313,322.5,373.5313,326.5,363.5313,322.5,367.5313" style="stroke:#181818;stroke-width:1.0;"/><line style="stroke:#181818;stroke-width:1.0;" x1="108" x2="108" y1="420.3438" y2="531.9688"/><line style="stroke:#181818;stroke-width:1.0;" x1="108" x2="203.25" y1="531.9688" y2="531.9688"/><polygon fill="#181818" points="193.25,527.9688,203.25,531.9688,193.25,535.9688,197.25,531.9688" style="stroke:#181818;stroke-width:1.0;"/><line style="stroke:#181818;stroke-width:1.0;" x1="322.5" x2="322.5" y1="513.9688" y2="531.9688"/><line style="stroke:#181818;stroke-width:1.0;" x1="322.5" x2="227.25" y1="531.9688" y2="531.9688"/><polygon fill="#181818" points="237.25,527.9688,227.25,531.9688,237.25,535.9688,233.25,531.9688" style="stroke:#181818;stroke-width:1.0;"/><line style="stroke:#181818;stroke-width:1.0;" x1="215.25" x2="215.25" y1="319.5313" y2="339.5313"/><polygon fill="#181818" points="211.25,329.5313,215.25,339.5313,219.25,329.5313,215.25,333.5313" style="stroke:#181818;stroke-width:1.0;"/><line style="stroke:#181818;stroke-width:1.0;" x1="215.25" x2="215.25" y1="120.0469" y2="165.6875"/><polygon fill="#181818" points="211.25,155.6875,215.25,165.6875,219.25,155.6875,215.25,159.6875" style="stroke:#181818;stroke-width:1.0;"/><line style="stroke:#181818;stroke-width:1.0;" x1="215.25" x2="215.25" y1="543.9688" y2="575.9688"/><polygon fill="#181818" points="211.25,565.9688,215.25,575.9688,219.25,565.9688,215.25,569.9688" style="stroke:#181818;stroke-width:1.0;"/><!--SRC=[RPAnRi8m48RtFCKf4qpTOK0XHIfIeGWGAxhQ1pLoxCXs65fLwgkqErCV00dUf4zIEoGq4OriURW___VVsKuuIN1F3gL4he6JX94KcL1e8CKScN1-dxzL55c7naLHRpLUB9Frw74y6K-J-JfDPaawNlhzDEr7KUv5mWcjO8AAThfs-pFpfRS8mAzUmdrDM6Sysu0bIIpK4LWB3V3pyULJMauWlHn1mxuyUPcSAiK3CW8c1GDI4DVak7-XLSo5_v4oXAoW00QcrKQOh8MQ6TeMoc4FujDnPDtvquVR5aOFuckO4cmXHFe_xr0xhSZs8Aq8vYv5nKYY2OdAD01Y0vtJiJs8EjAW2-x5jzAPwcufRiHd5olGEPahDdm1lIf8xWcmcX8gHqRe2bk1ILg2pk9ykB6co-1kcghTXzgOC7fuHc_XJuvEsuPWJjkobt0DKc-310ikd3Rd0xP2tDv7msP2okAE_2MqNcATZsFS42VC5IZ5ArvUIBjLnSMc7dbOx-4rw_mN]--></g></svg>