<?xml version="1.0" encoding="us-ascii" standalone="no"?><svg xmlns="http://www.w3.org/2000/svg" xmlns:xlink="http://www.w3.org/1999/xlink" contentStyleType="text/css" height="1657px" preserveAspectRatio="none" style="width:1052px;height:1657px;background:#FFFFFF;" version="1.1" viewBox="0 0 1052 1657" width="1052px" zoomAndPan="magnify"><defs/><g><text fill="#000000" font-family="sans-serif" font-size="14" font-weight="bold" lengthAdjust="spacing" textLength="260" x="394.5" y="32.6738">Detallado del Hacer Test (Postulante)</text><ellipse cx="398.0313" cy="56.6406" fill="#222222" rx="10" ry="10" style="stroke:#222222;stroke-width:1.0;"/><rect fill="#F1F1F1" height="33.4063" rx="12.5" ry="12.5" style="stroke:#181818;stroke-width:0.5;" width="138" x="329.0313" y="86.6406"/><text fill="#000000" font-family="sans-serif" font-size="12" lengthAdjust="spacing" textLength="118" x="339.0313" y="107.5039">VISTA_HACER_TEST</text><rect fill="none" height="1474.1719" style="stroke:#000000;stroke-width:1.5;" width="1030" x="11" y="130.0469"/><path d="M132,130.0469 L132,138.6875 L122,148.6875 L11,148.6875 " fill="none" style="stroke:#000000;stroke-width:1.5;"/><text fill="#000000" font-family="sans-serif" font-size="14" lengthAdjust="spacing" textLength="111" x="14" y="143.7207">ManejoHacerTest</text><rect fill="#F1F1F1" height="73.625" rx="12.5" ry="12.5" style="stroke:#181818;stroke-width:0.5;" width="240" x="278.0313" y="165.6875"/><text fill="#000000" font-family="sans-serif" font-size="12" lengthAdjust="spacing" textLength="210" x="288.0313" y="186.5508">Postulante accede a tests disponibles</text><text fill="#000000" font-family="sans-serif" font-size="12" lengthAdjust="spacing" textLength="157" x="288.0313" y="199.957">&#8226; Ve lista de tests asignados</text><text fill="#000000" font-family="sans-serif" font-size="12" lengthAdjust="spacing" textLength="220" x="288.0313" y="213.3633">&#8226; Revisa estado: Pendiente/En progreso</text><text fill="#000000" font-family="sans-serif" font-size="12" lengthAdjust="spacing" textLength="121" x="288.0313" y="226.7695">&#8226; Verifica fechas l&#237;mite</text><rect fill="#F1F1F1" height="60.2188" rx="12.5" ry="12.5" style="stroke:#181818;stroke-width:0.5;" width="185" x="305.5313" y="259.3125"/><text fill="#000000" font-family="sans-serif" font-size="12" lengthAdjust="spacing" textLength="145" x="315.5313" y="280.1758">Postulante selecciona test</text><text fill="#000000" font-family="sans-serif" font-size="12" lengthAdjust="spacing" textLength="165" x="315.5313" y="293.582">&#8226; Lee instrucciones generales</text><text fill="#000000" font-family="sans-serif" font-size="12" lengthAdjust="spacing" textLength="152" x="315.5313" y="306.9883">&#8226; Revisa duraci&#243;n estimada</text><rect fill="#F1F1F1" height="73.625" rx="12.5" ry="12.5" style="stroke:#181818;stroke-width:0.5;" width="183" x="306.5313" y="339.5313"/><text fill="#000000" font-family="sans-serif" font-size="12" lengthAdjust="spacing" textLength="154" x="316.5313" y="360.3945">Sistema verifica elegibilidad</text><text fill="#000000" font-family="sans-serif" font-size="12" lengthAdjust="spacing" textLength="161" x="316.5313" y="373.8008">&#8226; Test asignado al postulante</text><text fill="#000000" font-family="sans-serif" font-size="12" lengthAdjust="spacing" textLength="145" x="316.5313" y="387.207">&#8226; Dentro del per&#237;odo v&#225;lido</text><text fill="#000000" font-family="sans-serif" font-size="12" lengthAdjust="spacing" textLength="163" x="316.5313" y="400.6133">&#8226; No completado previamente</text><polygon fill="#F1F1F1" points="347.0313,433.1563,449.0313,433.1563,461.0313,445.1563,449.0313,457.1563,347.0313,457.1563,335.0313,445.1563,347.0313,433.1563" style="stroke:#181818;stroke-width:0.5;"/><text fill="#000000" font-family="sans-serif" font-size="11" lengthAdjust="spacing" textLength="102" x="347.0313" y="448.9697">&#191;Puede realizar test?</text><text fill="#000000" font-family="sans-serif" font-size="11" lengthAdjust="spacing" textLength="13" x="322.0313" y="442.8252">No</text><text fill="#000000" font-family="sans-serif" font-size="11" lengthAdjust="spacing" textLength="9" x="461.0313" y="442.8252">S&#237;</text><rect fill="#F1F1F1" height="87.0313" rx="12.5" ry="12.5" style="stroke:#181818;stroke-width:0.5;" width="175" x="23" y="467.1563"/><text fill="#000000" font-family="sans-serif" font-size="12" lengthAdjust="spacing" textLength="155" x="33" y="488.0195">Sistema muestra restricci&#243;n</text><text fill="#000000" font-family="sans-serif" font-size="12" lengthAdjust="spacing" textLength="97" x="33" y="501.4258">&#8226; Error espec&#237;fico:</text><text fill="#000000" font-family="sans-serif" font-size="12" lengthAdjust="spacing" textLength="111" x="39" y="514.832">- "Test no asignado"</text><text fill="#000000" font-family="sans-serif" font-size="12" lengthAdjust="spacing" textLength="105" x="39" y="528.2383">- "Fuera de tiempo"</text><text fill="#000000" font-family="sans-serif" font-size="12" lengthAdjust="spacing" textLength="97" x="39" y="541.6445">- "Ya completado"</text><rect fill="#F1F1F1" height="100.4375" rx="12.5" ry="12.5" style="stroke:#181818;stroke-width:0.5;" width="184" x="623.5625" y="467.1563"/><text fill="#000000" font-family="sans-serif" font-size="12" lengthAdjust="spacing" textLength="164" x="633.5625" y="488.0195">Sistema muestra preparaci&#243;n</text><text fill="#000000" font-family="sans-serif" font-size="12" lengthAdjust="spacing" textLength="143" x="633.5625" y="501.4258">&#8226; Instrucciones detalladas</text><text fill="#000000" font-family="sans-serif" font-size="12" lengthAdjust="spacing" textLength="119" x="633.5625" y="514.832">&#8226; Duraci&#243;n: X minutos</text><text fill="#000000" font-family="sans-serif" font-size="12" lengthAdjust="spacing" textLength="142" x="633.5625" y="528.2383">&#8226; N&#250;mero de preguntas: Y</text><text fill="#000000" font-family="sans-serif" font-size="12" lengthAdjust="spacing" textLength="111" x="633.5625" y="541.6445">&#8226; Tipo de evaluaci&#243;n</text><text fill="#000000" font-family="sans-serif" font-size="12" lengthAdjust="spacing" textLength="138" x="633.5625" y="555.0508">&#8226; Bot&#243;n: "Comenzar Test"</text><polygon fill="#F1F1F1" points="660.5625,587.5938,770.5625,587.5938,782.5625,599.5938,770.5625,611.5938,660.5625,611.5938,648.5625,599.5938,660.5625,587.5938" style="stroke:#181818;stroke-width:0.5;"/><text fill="#000000" font-family="sans-serif" font-size="11" lengthAdjust="spacing" textLength="110" x="660.5625" y="603.4072">&#191;Postulante inicia test?</text><text fill="#000000" font-family="sans-serif" font-size="11" lengthAdjust="spacing" textLength="9" x="639.5625" y="597.2627">S&#237;</text><text fill="#000000" font-family="sans-serif" font-size="11" lengthAdjust="spacing" textLength="13" x="782.5625" y="597.2627">No</text><rect fill="#F1F1F1" height="87.0313" rx="12.5" ry="12.5" style="stroke:#181818;stroke-width:0.5;" width="179" x="383.625" y="621.5938"/><text fill="#000000" font-family="sans-serif" font-size="12" lengthAdjust="spacing" textLength="159" x="393.625" y="642.457">Sistema inicia sesi&#243;n de test</text><text fill="#000000" font-family="sans-serif" font-size="12" lengthAdjust="spacing" textLength="132" x="393.625" y="655.8633">&#8226; Registra hora de inicio</text><text fill="#000000" font-family="sans-serif" font-size="12" lengthAdjust="spacing" textLength="105" x="393.625" y="669.2695">&#8226; Activa cron&#243;metro</text><text fill="#000000" font-family="sans-serif" font-size="12" lengthAdjust="spacing" textLength="140" x="393.625" y="682.6758">&#8226; Carga primera pregunta</text><text fill="#000000" font-family="sans-serif" font-size="12" lengthAdjust="spacing" textLength="116" x="393.625" y="696.082">&#8226; Habilita navegaci&#243;n</text><rect fill="#F1F1F1" height="87.0313" rx="12.5" ry="12.5" style="stroke:#181818;stroke-width:0.5;" width="180" x="383.125" y="728.625"/><text fill="#000000" font-family="sans-serif" font-size="12" lengthAdjust="spacing" textLength="121" x="393.125" y="749.4883">Postulante realiza test</text><text fill="#000000" font-family="sans-serif" font-size="12" lengthAdjust="spacing" textLength="125" x="393.125" y="762.8945">&#8226; Responde preguntas</text><text fill="#000000" font-family="sans-serif" font-size="12" lengthAdjust="spacing" textLength="140" x="393.125" y="776.3008">&#8226; Navega entre preguntas</text><text fill="#000000" font-family="sans-serif" font-size="12" lengthAdjust="spacing" textLength="111" x="393.125" y="789.707">&#8226; Ve tiempo restante</text><text fill="#000000" font-family="sans-serif" font-size="12" lengthAdjust="spacing" textLength="160" x="393.125" y="803.1133">&#8226; Puede marcar para revisi&#243;n</text><rect fill="#F1F1F1" height="87.0313" rx="12.5" ry="12.5" style="stroke:#181818;stroke-width:0.5;" width="234" x="356.125" y="835.6563"/><text fill="#000000" font-family="sans-serif" font-size="12" lengthAdjust="spacing" textLength="158" x="366.125" y="856.5195">Sistema monitorea progreso</text><text fill="#000000" font-family="sans-serif" font-size="12" lengthAdjust="spacing" textLength="214" x="366.125" y="869.9258">&#8226; Guarda respuestas autom&#225;ticamente</text><text fill="#000000" font-family="sans-serif" font-size="12" lengthAdjust="spacing" textLength="145" x="366.125" y="883.332">&#8226; Actualiza tiempo restante</text><text fill="#000000" font-family="sans-serif" font-size="12" lengthAdjust="spacing" textLength="144" x="366.125" y="896.7383">&#8226; Permite navegaci&#243;n libre</text><text fill="#000000" font-family="sans-serif" font-size="12" lengthAdjust="spacing" textLength="127" x="366.125" y="910.1445">&#8226; Advierte tiempo cr&#237;tico</text><polygon fill="#F1F1F1" points="429.125,942.6875,517.125,942.6875,529.125,954.6875,517.125,966.6875,429.125,966.6875,417.125,954.6875,429.125,942.6875" style="stroke:#181818;stroke-width:0.5;"/><text fill="#000000" font-family="sans-serif" font-size="11" lengthAdjust="spacing" textLength="88" x="429.125" y="958.501">&#191;Tiempo agotado?</text><text fill="#000000" font-family="sans-serif" font-size="11" lengthAdjust="spacing" textLength="9" x="408.125" y="952.3564">S&#237;</text><text fill="#000000" font-family="sans-serif" font-size="11" lengthAdjust="spacing" textLength="111" x="529.125" y="952.3564">No - Postulante termina</text><rect fill="#F1F1F1" height="73.625" rx="12.5" ry="12.5" style="stroke:#181818;stroke-width:0.5;" width="206" x="208" y="976.6875"/><text fill="#000000" font-family="sans-serif" font-size="12" lengthAdjust="spacing" textLength="186" x="218" y="997.5508">Sistema finaliza autom&#225;ticamente</text><text fill="#000000" font-family="sans-serif" font-size="12" lengthAdjust="spacing" textLength="165" x="218" y="1010.957">&#8226; Guarda respuestas actuales</text><text fill="#000000" font-family="sans-serif" font-size="12" lengthAdjust="spacing" textLength="176" x="218" y="1024.3633">&#8226; Marca como "Tiempo agotado"</text><text fill="#000000" font-family="sans-serif" font-size="12" lengthAdjust="spacing" textLength="118" x="218" y="1037.7695">&#8226; Procesa calificaci&#243;n</text><rect fill="#F1F1F1" height="73.625" rx="12.5" ry="12.5" style="stroke:#181818;stroke-width:0.5;" width="184" x="543.25" y="976.6875"/><text fill="#000000" font-family="sans-serif" font-size="12" lengthAdjust="spacing" textLength="161" x="553.25" y="997.5508">Postulante revisa respuestas</text><text fill="#000000" font-family="sans-serif" font-size="12" lengthAdjust="spacing" textLength="151" x="553.25" y="1010.957">&#8226; Ve resumen de preguntas</text><text fill="#000000" font-family="sans-serif" font-size="12" lengthAdjust="spacing" textLength="137" x="553.25" y="1024.3633">&#8226; Identifica sin responder</text><text fill="#000000" font-family="sans-serif" font-size="12" lengthAdjust="spacing" textLength="164" x="553.25" y="1037.7695">&#8226; Puede modificar respuestas</text><rect fill="#F1F1F1" height="73.625" rx="12.5" ry="12.5" style="stroke:#181818;stroke-width:0.5;" width="210" x="530.25" y="1070.3125"/><text fill="#000000" font-family="sans-serif" font-size="12" lengthAdjust="spacing" textLength="162" x="540.25" y="1091.1758">Sistema solicita confirmaci&#243;n</text><text fill="#000000" font-family="sans-serif" font-size="12" lengthAdjust="spacing" textLength="173" x="540.25" y="1104.582">&#8226; "&#191;Enviar test definitivamente?"</text><text fill="#000000" font-family="sans-serif" font-size="12" lengthAdjust="spacing" textLength="190" x="540.25" y="1117.9883">&#8226; Advertencia: "No podr&#225; modificar"</text><text fill="#000000" font-family="sans-serif" font-size="12" lengthAdjust="spacing" textLength="158" x="540.25" y="1131.3945">&#8226; Opciones: Enviar/Continuar</text><polygon fill="#F1F1F1" points="593.25,1163.9375,677.25,1163.9375,689.25,1175.9375,677.25,1187.9375,593.25,1187.9375,581.25,1175.9375,593.25,1163.9375" style="stroke:#181818;stroke-width:0.5;"/><text fill="#000000" font-family="sans-serif" font-size="11" lengthAdjust="spacing" textLength="84" x="593.25" y="1179.751">&#191;Confirma env&#237;o?</text><text fill="#000000" font-family="sans-serif" font-size="11" lengthAdjust="spacing" textLength="9" x="572.25" y="1173.6064">S&#237;</text><text fill="#000000" font-family="sans-serif" font-size="11" lengthAdjust="spacing" textLength="13" x="689.25" y="1173.6064">No</text><rect fill="#F1F1F1" height="73.625" rx="12.5" ry="12.5" style="stroke:#181818;stroke-width:0.5;" width="186" x="444" y="1197.9375"/><text fill="#000000" font-family="sans-serif" font-size="12" lengthAdjust="spacing" textLength="126" x="454" y="1218.8008">Sistema procesa env&#237;o</text><text fill="#000000" font-family="sans-serif" font-size="12" lengthAdjust="spacing" textLength="166" x="454" y="1232.207">&#8226; Marca test como completado</text><text fill="#000000" font-family="sans-serif" font-size="12" lengthAdjust="spacing" textLength="164" x="454" y="1245.6133">&#8226; Registra hora de finalizaci&#243;n</text><text fill="#000000" font-family="sans-serif" font-size="12" lengthAdjust="spacing" textLength="166" x="454" y="1259.0195">&#8226; Inicia proceso de calificaci&#243;n</text><rect fill="#F1F1F1" height="60.2188" rx="12.5" ry="12.5" style="stroke:#181818;stroke-width:0.5;" width="167" x="650" y="1197.9375"/><text fill="#000000" font-family="sans-serif" font-size="12" lengthAdjust="spacing" textLength="142" x="660" y="1218.8008">Sistema mantiene sesi&#243;n</text><text fill="#000000" font-family="sans-serif" font-size="12" lengthAdjust="spacing" textLength="80" x="660" y="1232.207">&#8226; Vuelve al test</text><text fill="#000000" font-family="sans-serif" font-size="12" lengthAdjust="spacing" textLength="147" x="660" y="1245.6133">&#8226; Mantiene tiempo restante</text><polygon fill="#F1F1F1" points="635.25,1277.5625,647.25,1289.5625,635.25,1301.5625,623.25,1289.5625,635.25,1277.5625" style="stroke:#181818;stroke-width:0.5;"/><polygon fill="#F1F1F1" points="473.125,1307.5625,485.125,1319.5625,473.125,1331.5625,461.125,1319.5625,473.125,1307.5625" style="stroke:#181818;stroke-width:0.5;"/><rect fill="#F1F1F1" height="73.625" rx="12.5" ry="12.5" style="stroke:#181818;stroke-width:0.5;" width="201" x="372.625" y="1351.5625"/><text fill="#000000" font-family="sans-serif" font-size="12" lengthAdjust="spacing" textLength="150" x="382.625" y="1372.4258">Sistema calcula resultados</text><text fill="#000000" font-family="sans-serif" font-size="12" lengthAdjust="spacing" textLength="165" x="382.625" y="1385.832">&#8226; Eval&#250;a respuestas correctas</text><text fill="#000000" font-family="sans-serif" font-size="12" lengthAdjust="spacing" textLength="181" x="382.625" y="1399.2383">&#8226; Aplica ponderaci&#243;n de puntajes</text><text fill="#000000" font-family="sans-serif" font-size="12" lengthAdjust="spacing" textLength="139" x="382.625" y="1412.6445">&#8226; Genera calificaci&#243;n final</text><rect fill="#F1F1F1" height="87.0313" rx="12.5" ry="12.5" style="stroke:#181818;stroke-width:0.5;" width="206" x="370.125" y="1445.1875"/><text fill="#000000" font-family="sans-serif" font-size="12" lengthAdjust="spacing" textLength="169" x="380.125" y="1466.0508">Sistema muestra confirmaci&#243;n</text><text fill="#000000" font-family="sans-serif" font-size="12" lengthAdjust="spacing" textLength="185" x="380.125" y="1479.457">&#8226; "Test completado exitosamente"</text><text fill="#000000" font-family="sans-serif" font-size="12" lengthAdjust="spacing" textLength="98" x="380.125" y="1492.8633">&#8226; Tiempo utilizado</text><text fill="#000000" font-family="sans-serif" font-size="12" lengthAdjust="spacing" textLength="186" x="380.125" y="1506.2695">&#8226; "Resultados disponibles pronto"</text><text fill="#000000" font-family="sans-serif" font-size="12" lengthAdjust="spacing" textLength="140" x="380.125" y="1519.6758">&#8226; Opci&#243;n: "Ver otros tests"</text><rect fill="#F1F1F1" height="60.2188" rx="12.5" ry="12.5" style="stroke:#181818;stroke-width:0.5;" width="202" x="827" y="621.5938"/><text fill="#000000" font-family="sans-serif" font-size="12" lengthAdjust="spacing" textLength="182" x="837" y="642.457">Sistema mantiene disponibilidad</text><text fill="#000000" font-family="sans-serif" font-size="12" lengthAdjust="spacing" textLength="156" x="837" y="655.8633">&#8226; Test permanece pendiente</text><text fill="#000000" font-family="sans-serif" font-size="12" lengthAdjust="spacing" textLength="139" x="837" y="669.2695">&#8226; Puede iniciar m&#225;s tarde</text><polygon fill="#F1F1F1" points="715.5625,1538.2188,727.5625,1550.2188,715.5625,1562.2188,703.5625,1550.2188,715.5625,1538.2188" style="stroke:#181818;stroke-width:0.5;"/><polygon fill="#F1F1F1" points="398.0313,1568.2188,410.0313,1580.2188,398.0313,1592.2188,386.0313,1580.2188,398.0313,1568.2188" style="stroke:#181818;stroke-width:0.5;"/><ellipse cx="398.0313" cy="1635.2188" fill="none" rx="11" ry="11" style="stroke:#222222;stroke-width:1.0;"/><ellipse cx="398.0313" cy="1635.2188" fill="#222222" rx="6" ry="6" style="stroke:#222222;stroke-width:1.0;"/><line style="stroke:#181818;stroke-width:1.0;" x1="398.0313" x2="398.0313" y1="66.6406" y2="86.6406"/><polygon fill="#181818" points="394.0313,76.6406,398.0313,86.6406,402.0313,76.6406,398.0313,80.6406" style="stroke:#181818;stroke-width:1.0;"/><line style="stroke:#181818;stroke-width:1.0;" x1="398.0313" x2="398.0313" y1="239.3125" y2="259.3125"/><polygon fill="#181818" points="394.0313,249.3125,398.0313,259.3125,402.0313,249.3125,398.0313,253.3125" style="stroke:#181818;stroke-width:1.0;"/><line style="stroke:#181818;stroke-width:1.0;" x1="398.0313" x2="398.0313" y1="319.5313" y2="339.5313"/><polygon fill="#181818" points="394.0313,329.5313,398.0313,339.5313,402.0313,329.5313,398.0313,333.5313" style="stroke:#181818;stroke-width:1.0;"/><line style="stroke:#181818;stroke-width:1.0;" x1="473.125" x2="473.125" y1="708.625" y2="728.625"/><polygon fill="#181818" points="469.125,718.625,473.125,728.625,477.125,718.625,473.125,722.625" style="stroke:#181818;stroke-width:1.0;"/><line style="stroke:#181818;stroke-width:1.0;" x1="473.125" x2="473.125" y1="815.6563" y2="835.6563"/><polygon fill="#181818" points="469.125,825.6563,473.125,835.6563,477.125,825.6563,473.125,829.6563" style="stroke:#181818;stroke-width:1.0;"/><line style="stroke:#181818;stroke-width:1.0;" x1="635.25" x2="635.25" y1="1050.3125" y2="1070.3125"/><polygon fill="#181818" points="631.25,1060.3125,635.25,1070.3125,639.25,1060.3125,635.25,1064.3125" style="stroke:#181818;stroke-width:1.0;"/><line style="stroke:#181818;stroke-width:1.0;" x1="581.25" x2="537" y1="1175.9375" y2="1175.9375"/><line style="stroke:#181818;stroke-width:1.0;" x1="537" x2="537" y1="1175.9375" y2="1197.9375"/><polygon fill="#181818" points="533,1187.9375,537,1197.9375,541,1187.9375,537,1191.9375" style="stroke:#181818;stroke-width:1.0;"/><line style="stroke:#181818;stroke-width:1.0;" x1="689.25" x2="733.5" y1="1175.9375" y2="1175.9375"/><line style="stroke:#181818;stroke-width:1.0;" x1="733.5" x2="733.5" y1="1175.9375" y2="1197.9375"/><polygon fill="#181818" points="729.5,1187.9375,733.5,1197.9375,737.5,1187.9375,733.5,1191.9375" style="stroke:#181818;stroke-width:1.0;"/><line style="stroke:#181818;stroke-width:1.0;" x1="537" x2="537" y1="1271.5625" y2="1289.5625"/><line style="stroke:#181818;stroke-width:1.0;" x1="537" x2="623.25" y1="1289.5625" y2="1289.5625"/><polygon fill="#181818" points="613.25,1285.5625,623.25,1289.5625,613.25,1293.5625,617.25,1289.5625" style="stroke:#181818;stroke-width:1.0;"/><line style="stroke:#181818;stroke-width:1.0;" x1="733.5" x2="733.5" y1="1258.1563" y2="1289.5625"/><line style="stroke:#181818;stroke-width:1.0;" x1="733.5" x2="647.25" y1="1289.5625" y2="1289.5625"/><polygon fill="#181818" points="657.25,1285.5625,647.25,1289.5625,657.25,1293.5625,653.25,1289.5625" style="stroke:#181818;stroke-width:1.0;"/><line style="stroke:#181818;stroke-width:1.0;" x1="635.25" x2="635.25" y1="1143.9375" y2="1163.9375"/><polygon fill="#181818" points="631.25,1153.9375,635.25,1163.9375,639.25,1153.9375,635.25,1157.9375" style="stroke:#181818;stroke-width:1.0;"/><line style="stroke:#181818;stroke-width:1.0;" x1="417.125" x2="311" y1="954.6875" y2="954.6875"/><line style="stroke:#181818;stroke-width:1.0;" x1="311" x2="311" y1="954.6875" y2="976.6875"/><polygon fill="#181818" points="307,966.6875,311,976.6875,315,966.6875,311,970.6875" style="stroke:#181818;stroke-width:1.0;"/><line style="stroke:#181818;stroke-width:1.0;" x1="529.125" x2="635.25" y1="954.6875" y2="954.6875"/><line style="stroke:#181818;stroke-width:1.0;" x1="635.25" x2="635.25" y1="954.6875" y2="976.6875"/><polygon fill="#181818" points="631.25,966.6875,635.25,976.6875,639.25,966.6875,635.25,970.6875" style="stroke:#181818;stroke-width:1.0;"/><line style="stroke:#181818;stroke-width:1.0;" x1="311" x2="311" y1="1050.3125" y2="1319.5625"/><line style="stroke:#181818;stroke-width:1.0;" x1="311" x2="461.125" y1="1319.5625" y2="1319.5625"/><polygon fill="#181818" points="451.125,1315.5625,461.125,1319.5625,451.125,1323.5625,455.125,1319.5625" style="stroke:#181818;stroke-width:1.0;"/><line style="stroke:#181818;stroke-width:1.0;" x1="635.25" x2="635.25" y1="1301.5625" y2="1319.5625"/><line style="stroke:#181818;stroke-width:1.0;" x1="635.25" x2="485.125" y1="1319.5625" y2="1319.5625"/><polygon fill="#181818" points="495.125,1315.5625,485.125,1319.5625,495.125,1323.5625,491.125,1319.5625" style="stroke:#181818;stroke-width:1.0;"/><line style="stroke:#181818;stroke-width:1.0;" x1="473.125" x2="473.125" y1="922.6875" y2="942.6875"/><polygon fill="#181818" points="469.125,932.6875,473.125,942.6875,477.125,932.6875,473.125,936.6875" style="stroke:#181818;stroke-width:1.0;"/><line style="stroke:#181818;stroke-width:1.0;" x1="473.125" x2="473.125" y1="1331.5625" y2="1351.5625"/><polygon fill="#181818" points="469.125,1341.5625,473.125,1351.5625,477.125,1341.5625,473.125,1345.5625" style="stroke:#181818;stroke-width:1.0;"/><line style="stroke:#181818;stroke-width:1.0;" x1="473.125" x2="473.125" y1="1425.1875" y2="1445.1875"/><polygon fill="#181818" points="469.125,1435.1875,473.125,1445.1875,477.125,1435.1875,473.125,1439.1875" style="stroke:#181818;stroke-width:1.0;"/><line style="stroke:#181818;stroke-width:1.0;" x1="648.5625" x2="473.125" y1="599.5938" y2="599.5938"/><line style="stroke:#181818;stroke-width:1.0;" x1="473.125" x2="473.125" y1="599.5938" y2="621.5938"/><polygon fill="#181818" points="469.125,611.5938,473.125,621.5938,477.125,611.5938,473.125,615.5938" style="stroke:#181818;stroke-width:1.0;"/><line style="stroke:#181818;stroke-width:1.0;" x1="782.5625" x2="928" y1="599.5938" y2="599.5938"/><line style="stroke:#181818;stroke-width:1.0;" x1="928" x2="928" y1="599.5938" y2="621.5938"/><polygon fill="#181818" points="924,611.5938,928,621.5938,932,611.5938,928,615.5938" style="stroke:#181818;stroke-width:1.0;"/><line style="stroke:#181818;stroke-width:1.0;" x1="473.125" x2="473.125" y1="1532.2188" y2="1550.2188"/><line style="stroke:#181818;stroke-width:1.0;" x1="473.125" x2="703.5625" y1="1550.2188" y2="1550.2188"/><polygon fill="#181818" points="693.5625,1546.2188,703.5625,1550.2188,693.5625,1554.2188,697.5625,1550.2188" style="stroke:#181818;stroke-width:1.0;"/><line style="stroke:#181818;stroke-width:1.0;" x1="928" x2="928" y1="681.8125" y2="1550.2188"/><line style="stroke:#181818;stroke-width:1.0;" x1="928" x2="727.5625" y1="1550.2188" y2="1550.2188"/><polygon fill="#181818" points="737.5625,1546.2188,727.5625,1550.2188,737.5625,1554.2188,733.5625,1550.2188" style="stroke:#181818;stroke-width:1.0;"/><line style="stroke:#181818;stroke-width:1.0;" x1="715.5625" x2="715.5625" y1="567.5938" y2="587.5938"/><polygon fill="#181818" points="711.5625,577.5938,715.5625,587.5938,719.5625,577.5938,715.5625,581.5938" style="stroke:#181818;stroke-width:1.0;"/><line style="stroke:#181818;stroke-width:1.0;" x1="335.0313" x2="110.5" y1="445.1563" y2="445.1563"/><line style="stroke:#181818;stroke-width:1.0;" x1="110.5" x2="110.5" y1="445.1563" y2="467.1563"/><polygon fill="#181818" points="106.5,457.1563,110.5,467.1563,114.5,457.1563,110.5,461.1563" style="stroke:#181818;stroke-width:1.0;"/><line style="stroke:#181818;stroke-width:1.0;" x1="461.0313" x2="715.5625" y1="445.1563" y2="445.1563"/><line style="stroke:#181818;stroke-width:1.0;" x1="715.5625" x2="715.5625" y1="445.1563" y2="467.1563"/><polygon fill="#181818" points="711.5625,457.1563,715.5625,467.1563,719.5625,457.1563,715.5625,461.1563" style="stroke:#181818;stroke-width:1.0;"/><line style="stroke:#181818;stroke-width:1.0;" x1="110.5" x2="110.5" y1="554.1875" y2="1580.2188"/><line style="stroke:#181818;stroke-width:1.0;" x1="110.5" x2="386.0313" y1="1580.2188" y2="1580.2188"/><polygon fill="#181818" points="376.0313,1576.2188,386.0313,1580.2188,376.0313,1584.2188,380.0313,1580.2188" style="stroke:#181818;stroke-width:1.0;"/><line style="stroke:#181818;stroke-width:1.0;" x1="715.5625" x2="715.5625" y1="1562.2188" y2="1580.2188"/><line style="stroke:#181818;stroke-width:1.0;" x1="715.5625" x2="410.0313" y1="1580.2188" y2="1580.2188"/><polygon fill="#181818" points="420.0313,1576.2188,410.0313,1580.2188,420.0313,1584.2188,416.0313,1580.2188" style="stroke:#181818;stroke-width:1.0;"/><line style="stroke:#181818;stroke-width:1.0;" x1="398.0313" x2="398.0313" y1="413.1563" y2="433.1563"/><polygon fill="#181818" points="394.0313,423.1563,398.0313,433.1563,402.0313,423.1563,398.0313,427.1563" style="stroke:#181818;stroke-width:1.0;"/><line style="stroke:#181818;stroke-width:1.0;" x1="398.0313" x2="398.0313" y1="120.0469" y2="165.6875"/><polygon fill="#181818" points="394.0313,155.6875,398.0313,165.6875,402.0313,155.6875,398.0313,159.6875" style="stroke:#181818;stroke-width:1.0;"/><line style="stroke:#181818;stroke-width:1.0;" x1="398.0313" x2="398.0313" y1="1592.2188" y2="1624.2188"/><polygon fill="#181818" points="394.0313,1614.2188,398.0313,1624.2188,402.0313,1614.2188,398.0313,1618.2188" style="stroke:#181818;stroke-width:1.0;"/><!--SRC=[TLPDRnit4BthLmnqiWz1xl8XS6Kr3j2uXYq8pIcWkQCr0owv8BcBeaM1_XNtxbDkkGJ8_fFyaWu_TfVK1s3Oi6OqV6_cpIETS1BX1XsJabKQAfHmopWQsA9rS76lhUiaKmul5mlhc76BnMhtuN5x_VdsUhrv-BpTF6wl5ekM8i89hU0ZK_X5XngXnDyB0FfPpPM0SOuL_G572HOgOLkjn9D4Iua___qFTWXIq6a49-KmAsf50CUC1-o5PK0n-d05zwWgWLJxxKP1QtHjqEgfc15xmHdiaJyp2t9uROJ3gsDS5YLoJYGYilJztn11AEjC5s9eeKQ5Xirm4vYgCuoBuQloi4J3AaPdf5CUYGus3FeH31rLYoSXHSMgL2QqQoGAJ48xGKiPDqJHn26rQ8PNJNdzy495Hh9t6hXkMec-BzG9GiOQtnYQKK0Yzd3nu_jzvmTWa4dn5pE1xRjBSC-euE9ENr9UXhdfA6mOfTCVmGF5aE4Ft1YZ3H5kaG-ln4olGWZW3Im38QKdJiivz6j77GpZ5TYqUUGJonWi_PGW1EaNIejmyJYydW58T4c7h0JueHXTbPJEx9HmCuvj1Nz08rJdz1oy6xur65hkgzUTSiokuDCKtues1B5diZiu-HVjGjNbMjC8V9zzGoAbo2aDOrQWK88BLivZufinJdaMRT1RMfEK5ILPYz2JPntx7BwXiunhxaHFlJPQ3LyR95rbmJKpjU-dQ33sDJ3F4cwProvjg68zrf7uLOgFO3DUIMd7AFtcvxtDWdUXCdZ9dqxOZUe9oanhCWQZmXjcEFNTgmByBjXJE2SPaGavJL1p1ndhlU-OgS8Ej5vjv2ECXD8CBuwsEMnOsTik4JuF48steRo1P7fFfgXJzGADctXosdawJnymY3BQnXnMQxyvf-IJSTqB5G6UON6MT626jaZxwBlijrRJpXSebaNUlT4SoIWv7UrDi53Dn2PkEHdP6yWKv7ox5Cke5F8A1ZpZB8xT-GJR4Jqu8RNa4XMHZyviXGgLl31DYJzgIbSXqMJd7P78McsrfDLpla5gBqoJkSHOUFdZ-qQHKqSd9fGq7k7NCupaNTb54eNNX28386-XFhMwCiFBZAjC_xsDrhU2UCJRjIQcYYPx0dHKqZe1fTthwP8vBQMCOPlc6jEpZ5aSWLTGo6pk1ub7bZLgjEpNwEh10EF9mO7FY2eZDmhh98U6X4Gl21mzzU2yNOUoHtyfPnOsKqpVFTZsqoZefR8_qdpsuQ4j4J5EEWyQbYwzWQRhb-wTuLknebmRWxoqokjMUcb7JIUpyRlW5-4Bvfdlmzkcx6QSn87f7BbdkeHFgJneV9iaC3vEy4zoMniblimIauDqJlZXLxa9Bn-c7kIlHYy3vNHUnAi-Nhxq_0DDjvkDBybbGUDG4iTo68-PNceJJ4-7Nc6KYPnQERv0Z-wWU5SR89Sb36IeM4AOHh-O_rdyur_RklqV]--></g></svg>