<?xml version="1.0" encoding="us-ascii" standalone="no"?><svg xmlns="http://www.w3.org/2000/svg" xmlns:xlink="http://www.w3.org/1999/xlink" contentStyleType="text/css" height="673px" preserveAspectRatio="none" style="width:593px;height:673px;background:#FFFFFF;" version="1.1" viewBox="0 0 593 673" width="593px" zoomAndPan="magnify"><defs/><g><text fill="#000000" font-family="sans-serif" font-size="14" font-weight="bold" lengthAdjust="spacing" textLength="237" x="176.5" y="33.5352">Detallado del Hacer Capacitaci&#243;n</text><ellipse cx="282.75" cy="57.4883" fill="#222222" rx="10" ry="10" style="stroke:#222222;stroke-width:1.0;"/><rect fill="#F1F1F1" height="34.1328" rx="12.5" ry="12.5" style="stroke:#181818;stroke-width:0.5;" width="192" x="186.75" y="87.4883"/><text fill="#000000" font-family="sans-serif" font-size="12" lengthAdjust="spacing" textLength="172" x="196.75" y="109.0898">VISTA_HACER_CAPACITACION</text><rect fill="none" height="488.8164" style="stroke:#000000;stroke-width:1.5;" width="571" x="11" y="131.6211"/><path d="M198,131.6211 L198,141.1094 L188,151.1094 L11,151.1094 " fill="none" style="stroke:#000000;stroke-width:1.5;"/><text fill="#000000" font-family="sans-serif" font-size="14" lengthAdjust="spacing" textLength="177" x="14" y="146.1563">ManejoHacerCapacitacion</text><rect fill="#F1F1F1" height="48.2656" rx="12.5" ry="12.5" style="stroke:#181818;stroke-width:0.5;" width="319" x="123.25" y="168.1094"/><text fill="#000000" font-family="sans-serif" font-size="12" lengthAdjust="spacing" textLength="299" x="133.25" y="189.7109">Postulante/Becario solicita acceder a capacitaciones</text><text fill="#000000" font-family="sans-serif" font-size="12" lengthAdjust="spacing" textLength="230" x="133.25" y="203.8438">&#8226; Ve lista de capacitaciones disponibles</text><rect fill="#F1F1F1" height="34.1328" rx="12.5" ry="12.5" style="stroke:#181818;stroke-width:0.5;" width="262" x="151.75" y="236.375"/><text fill="#000000" font-family="sans-serif" font-size="12" lengthAdjust="spacing" textLength="242" x="161.75" y="257.9766">Sistema permite acceder a capacitaciones</text><rect fill="#F1F1F1" height="48.2656" rx="12.5" ry="12.5" style="stroke:#181818;stroke-width:0.5;" width="265" x="150.25" y="290.5078"/><text fill="#000000" font-family="sans-serif" font-size="12" lengthAdjust="spacing" textLength="245" x="160.25" y="312.1094">Postulante/Becario selecciona capacitaci&#243;n</text><text fill="#000000" font-family="sans-serif" font-size="12" lengthAdjust="spacing" textLength="158" x="160.25" y="326.2422">&#8226; Lee descripci&#243;n completa</text><rect fill="#F1F1F1" height="48.2656" rx="12.5" ry="12.5" style="stroke:#181818;stroke-width:0.5;" width="181" x="192.25" y="358.7734"/><text fill="#000000" font-family="sans-serif" font-size="12" lengthAdjust="spacing" textLength="160" x="202.25" y="380.375">Sistema verifica elegibilidad</text><text fill="#000000" font-family="sans-serif" font-size="12" lengthAdjust="spacing" textLength="161" x="202.25" y="394.5078">&#8226; Cumple requisitos previos</text><polygon fill="#F1F1F1" points="228.75,427.0391,336.75,427.0391,348.75,439.0391,336.75,451.0391,228.75,451.0391,216.75,439.0391,228.75,427.0391" style="stroke:#181818;stroke-width:0.5;"/><text fill="#000000" font-family="sans-serif" font-size="11" lengthAdjust="spacing" textLength="108" x="228.75" y="443.1963">&#191;Cumple requisitos?</text><text fill="#000000" font-family="sans-serif" font-size="11" lengthAdjust="spacing" textLength="15" x="201.75" y="436.7188">No</text><text fill="#000000" font-family="sans-serif" font-size="11" lengthAdjust="spacing" textLength="9" x="348.75" y="436.7188">S&#237;</text><rect fill="#F1F1F1" height="90.6641" rx="12.5" ry="12.5" style="stroke:#181818;stroke-width:0.5;" width="236" x="23" y="461.0391"/><text fill="#000000" font-family="sans-serif" font-size="12" lengthAdjust="spacing" textLength="95" x="33" y="482.6406">Sistema muestra</text><text fill="#000000" font-family="sans-serif" font-size="12" lengthAdjust="spacing" textLength="178" x="33" y="496.7734">&#8226; Error: "No cumple requisitos"</text><text fill="#000000" font-family="sans-serif" font-size="12" lengthAdjust="spacing" textLength="128" x="33" y="510.9063">&#8226; Detalles espec&#237;ficos:</text><text fill="#000000" font-family="sans-serif" font-size="12" lengthAdjust="spacing" textLength="123" x="41" y="525.0391">- Requisitos faltantes</text><text fill="#000000" font-family="sans-serif" font-size="12" lengthAdjust="spacing" textLength="208" x="41" y="539.1719">- Capacitaciones previas necesarias</text><rect fill="#F1F1F1" height="48.2656" rx="12.5" ry="12.5" style="stroke:#181818;stroke-width:0.5;" width="291" x="279" y="461.0391"/><text fill="#000000" font-family="sans-serif" font-size="12" lengthAdjust="spacing" textLength="271" x="289" y="482.6406">Postulante/Becario solicita acceder a contenido</text><text fill="#000000" font-family="sans-serif" font-size="12" lengthAdjust="spacing" textLength="113" x="297" y="496.7734">&#8226; Videos y recursos</text><rect fill="#F1F1F1" height="34.1328" rx="12.5" ry="12.5" style="stroke:#181818;stroke-width:0.5;" width="234" x="307.5" y="544.3047"/><text fill="#000000" font-family="sans-serif" font-size="12" lengthAdjust="spacing" textLength="214" x="317.5" y="565.9063">Sistema permite acceder a contenido</text><polygon fill="#F1F1F1" points="282.75,584.4375,294.75,596.4375,282.75,608.4375,270.75,596.4375,282.75,584.4375" style="stroke:#181818;stroke-width:0.5;"/><ellipse cx="282.75" cy="651.4375" fill="none" rx="11" ry="11" style="stroke:#222222;stroke-width:1.0;"/><ellipse cx="282.75" cy="651.4375" fill="#222222" rx="6" ry="6" style="stroke:#222222;stroke-width:1.0;"/><line style="stroke:#181818;stroke-width:1.0;" x1="282.75" x2="282.75" y1="67.4883" y2="87.4883"/><polygon fill="#181818" points="278.75,77.4883,282.75,87.4883,286.75,77.4883,282.75,81.4883" style="stroke:#181818;stroke-width:1.0;"/><line style="stroke:#181818;stroke-width:1.0;" x1="282.75" x2="282.75" y1="216.375" y2="236.375"/><polygon fill="#181818" points="278.75,226.375,282.75,236.375,286.75,226.375,282.75,230.375" style="stroke:#181818;stroke-width:1.0;"/><line style="stroke:#181818;stroke-width:1.0;" x1="282.75" x2="282.75" y1="270.5078" y2="290.5078"/><polygon fill="#181818" points="278.75,280.5078,282.75,290.5078,286.75,280.5078,282.75,284.5078" style="stroke:#181818;stroke-width:1.0;"/><line style="stroke:#181818;stroke-width:1.0;" x1="282.75" x2="282.75" y1="338.7734" y2="358.7734"/><polygon fill="#181818" points="278.75,348.7734,282.75,358.7734,286.75,348.7734,282.75,352.7734" style="stroke:#181818;stroke-width:1.0;"/><line style="stroke:#181818;stroke-width:1.0;" x1="424.5" x2="424.5" y1="509.3047" y2="544.3047"/><polygon fill="#181818" points="420.5,534.3047,424.5,544.3047,428.5,534.3047,424.5,538.3047" style="stroke:#181818;stroke-width:1.0;"/><line style="stroke:#181818;stroke-width:1.0;" x1="216.75" x2="141" y1="439.0391" y2="439.0391"/><line style="stroke:#181818;stroke-width:1.0;" x1="141" x2="141" y1="439.0391" y2="461.0391"/><polygon fill="#181818" points="137,451.0391,141,461.0391,145,451.0391,141,455.0391" style="stroke:#181818;stroke-width:1.0;"/><line style="stroke:#181818;stroke-width:1.0;" x1="348.75" x2="424.5" y1="439.0391" y2="439.0391"/><line style="stroke:#181818;stroke-width:1.0;" x1="424.5" x2="424.5" y1="439.0391" y2="461.0391"/><polygon fill="#181818" points="420.5,451.0391,424.5,461.0391,428.5,451.0391,424.5,455.0391" style="stroke:#181818;stroke-width:1.0;"/><line style="stroke:#181818;stroke-width:1.0;" x1="141" x2="141" y1="551.7031" y2="596.4375"/><line style="stroke:#181818;stroke-width:1.0;" x1="141" x2="270.75" y1="596.4375" y2="596.4375"/><polygon fill="#181818" points="260.75,592.4375,270.75,596.4375,260.75,600.4375,264.75,596.4375" style="stroke:#181818;stroke-width:1.0;"/><line style="stroke:#181818;stroke-width:1.0;" x1="424.5" x2="424.5" y1="578.4375" y2="596.4375"/><line style="stroke:#181818;stroke-width:1.0;" x1="424.5" x2="294.75" y1="596.4375" y2="596.4375"/><polygon fill="#181818" points="304.75,592.4375,294.75,596.4375,304.75,600.4375,300.75,596.4375" style="stroke:#181818;stroke-width:1.0;"/><line style="stroke:#181818;stroke-width:1.0;" x1="282.75" x2="282.75" y1="407.0391" y2="427.0391"/><polygon fill="#181818" points="278.75,417.0391,282.75,427.0391,286.75,417.0391,282.75,421.0391" style="stroke:#181818;stroke-width:1.0;"/><line style="stroke:#181818;stroke-width:1.0;" x1="282.75" x2="282.75" y1="121.6211" y2="168.1094"/><polygon fill="#181818" points="278.75,158.1094,282.75,168.1094,286.75,158.1094,282.75,162.1094" style="stroke:#181818;stroke-width:1.0;"/><line style="stroke:#181818;stroke-width:1.0;" x1="282.75" x2="282.75" y1="608.4375" y2="640.4375"/><polygon fill="#181818" points="278.75,630.4375,282.75,640.4375,286.75,630.4375,282.75,634.4375" style="stroke:#181818;stroke-width:1.0;"/><!--SRC=[ZPB1JXj138Rl-nGMf-I0k8S32biaaDeK4SGLcHcdTJKPJyUpIAYgnBDmvyG3894twPFW7KAo1HLLcjc3v_VlpruNBe7W4nKC0Rs0fm37w2X3YmaT5xkhXzWqMZ2NffbSdCpFfvV7q_RexBATdaxRatExNsVxJPDCmOKbmXUCz4EgpzR6uhyQ03kJKz7I1Oo5zWx9OMO1bS2z3j0vybOVmGrIIItlp-qTN104DXWZVIC0pveaybKWDHehCpSXBH4IvIKN-gVr_WTO5CZrgc5EFv0Nciz41g8kSwfXSB9CmQPP0OOCrvHvmGx13B_n5GVswDSkRTSdGQQV7IiNKKYPhbbUmUpm0aPFZ- -41sCetod2Q2PZKmtgBJlIah46-nf7EKkUmCvCmBrrsTceNXR1PacQoAtkZLXqKfy1Tk5iIxZ0KFf9wUQn_Vjlr1PG8P8ZjLbYxQOsKpyKb60qNzslmVzp9yG4aRsiozQLO4z6T6CTkIwh30jzj0ElLXivHS-BVjw_-tsNz0m0]--></g></svg>