<?xml version="1.0" encoding="us-ascii" standalone="no"?><svg xmlns="http://www.w3.org/2000/svg" xmlns:xlink="http://www.w3.org/1999/xlink" contentStyleType="text/css" height="766px" preserveAspectRatio="none" style="width:644px;height:766px;background:#FFFFFF;" version="1.1" viewBox="0 0 644 766" width="644px" zoomAndPan="magnify"><defs/><g><text fill="#000000" font-family="sans-serif" font-size="14" font-weight="bold" lengthAdjust="spacing" textLength="208" x="216.5" y="32.6738">Detallado del Ver Estad&#237;sticas</text><ellipse cx="286.125" cy="56.6406" fill="#222222" rx="10" ry="10" style="stroke:#222222;stroke-width:1.0;"/><rect fill="#F1F1F1" height="33.4063" rx="12.5" ry="12.5" style="stroke:#181818;stroke-width:0.5;" width="143" x="214.625" y="86.6406"/><text fill="#000000" font-family="sans-serif" font-size="12" lengthAdjust="spacing" textLength="123" x="224.625" y="107.5039">VISTA_ESTADISTICAS</text><rect fill="none" height="583.5469" style="stroke:#000000;stroke-width:1.5;" width="622" x="11" y="130.0469"/><path d="M164,130.0469 L164,138.6875 L154,148.6875 L11,148.6875 " fill="none" style="stroke:#000000;stroke-width:1.5;"/><text fill="#000000" font-family="sans-serif" font-size="14" lengthAdjust="spacing" textLength="143" x="14" y="143.7207">ManejoVerEstadisticas</text><rect fill="#F1F1F1" height="46.8125" rx="12.5" ry="12.5" style="stroke:#181818;stroke-width:0.5;" width="280" x="146.125" y="165.6875"/><text fill="#000000" font-family="sans-serif" font-size="12" lengthAdjust="spacing" textLength="260" x="156.125" y="186.5508">Administrador/Seleccionador accede al m&#243;dulo</text><text fill="#000000" font-family="sans-serif" font-size="12" lengthAdjust="spacing" textLength="148" x="156.125" y="199.957">&#8226; Selecciona "Estad&#237;sticas"</text><rect fill="#F1F1F1" height="60.2188" rx="12.5" ry="12.5" style="stroke:#181818;stroke-width:0.5;" width="179" x="196.625" y="232.5"/><text fill="#000000" font-family="sans-serif" font-size="12" lengthAdjust="spacing" textLength="143" x="206.625" y="253.3633">Sistema carga dashboard</text><text fill="#000000" font-family="sans-serif" font-size="12" lengthAdjust="spacing" textLength="159" x="206.625" y="266.7695">&#8226; Conecta con base de datos</text><text fill="#000000" font-family="sans-serif" font-size="12" lengthAdjust="spacing" textLength="122" x="206.625" y="280.1758">&#8226; Procesa informaci&#243;n</text><polygon fill="#F1F1F1" points="237.625,312.7188,334.625,312.7188,346.625,324.7188,334.625,336.7188,237.625,336.7188,225.625,324.7188,237.625,312.7188" style="stroke:#181818;stroke-width:0.5;"/><text fill="#000000" font-family="sans-serif" font-size="11" lengthAdjust="spacing" textLength="97" x="237.625" y="328.5322">&#191;Datos disponibles?</text><text fill="#000000" font-family="sans-serif" font-size="11" lengthAdjust="spacing" textLength="13" x="212.625" y="322.3877">No</text><text fill="#000000" font-family="sans-serif" font-size="11" lengthAdjust="spacing" textLength="9" x="346.625" y="322.3877">S&#237;</text><rect fill="#F1F1F1" height="73.625" rx="12.5" ry="12.5" style="stroke:#181818;stroke-width:0.5;" width="219" x="23" y="346.7188"/><text fill="#000000" font-family="sans-serif" font-size="12" lengthAdjust="spacing" textLength="95" x="33" y="367.582">Sistema muestra</text><text fill="#000000" font-family="sans-serif" font-size="12" lengthAdjust="spacing" textLength="184" x="33" y="380.9883">&#8226; Error: "No hay datos suficientes"</text><text fill="#000000" font-family="sans-serif" font-size="12" lengthAdjust="spacing" textLength="199" x="33" y="394.3945">&#8226; Mensaje: "Seleccione otro per&#237;odo"</text><text fill="#000000" font-family="sans-serif" font-size="12" lengthAdjust="spacing" textLength="104" x="33" y="407.8008">&#8226; Opciones de filtro</text><rect fill="#F1F1F1" height="73.625" rx="12.5" ry="12.5" style="stroke:#181818;stroke-width:0.5;" width="209" x="335.25" y="346.7188"/><text fill="#000000" font-family="sans-serif" font-size="12" lengthAdjust="spacing" textLength="158" x="345.25" y="367.582">Sistema genera estad&#237;sticas</text><text fill="#000000" font-family="sans-serif" font-size="12" lengthAdjust="spacing" textLength="167" x="345.25" y="380.9883">&#8226; Capacitaciones por mes/a&#241;o</text><text fill="#000000" font-family="sans-serif" font-size="12" lengthAdjust="spacing" textLength="149" x="345.25" y="394.3945">&#8226; Porcentaje de aprobaci&#243;n</text><text fill="#000000" font-family="sans-serif" font-size="12" lengthAdjust="spacing" textLength="189" x="345.25" y="407.8008">&#8226; N&#250;mero de postulantes/becarios</text><rect fill="#F1F1F1" height="87.0313" rx="12.5" ry="12.5" style="stroke:#181818;stroke-width:0.5;" width="178" x="350.75" y="440.3438"/><text fill="#000000" font-family="sans-serif" font-size="12" lengthAdjust="spacing" textLength="158" x="360.75" y="461.207">Sistema muestra dashboard</text><text fill="#000000" font-family="sans-serif" font-size="12" lengthAdjust="spacing" textLength="119" x="360.75" y="474.6133">&#8226; Gr&#225;ficos interactivos</text><text fill="#000000" font-family="sans-serif" font-size="12" lengthAdjust="spacing" textLength="99" x="360.75" y="488.0195">&#8226; Tablas resumen</text><text fill="#000000" font-family="sans-serif" font-size="12" lengthAdjust="spacing" textLength="141" x="360.75" y="501.4258">&#8226; Indicadores clave (KPIs)</text><text fill="#000000" font-family="sans-serif" font-size="12" lengthAdjust="spacing" textLength="144" x="360.75" y="514.832">&#8226; Opciones de exportaci&#243;n</text><polygon fill="#F1F1F1" points="395.25,547.375,484.25,547.375,496.25,559.375,484.25,571.375,395.25,571.375,383.25,559.375,395.25,547.375" style="stroke:#181818;stroke-width:0.5;"/><text fill="#000000" font-family="sans-serif" font-size="11" lengthAdjust="spacing" textLength="89" x="395.25" y="563.1885">&#191;Usuario exporta?</text><text fill="#000000" font-family="sans-serif" font-size="11" lengthAdjust="spacing" textLength="9" x="374.25" y="557.0439">S&#237;</text><text fill="#000000" font-family="sans-serif" font-size="11" lengthAdjust="spacing" textLength="13" x="496.25" y="557.0439">No</text><rect fill="#F1F1F1" height="60.2188" rx="12.5" ry="12.5" style="stroke:#181818;stroke-width:0.5;" width="151" x="272" y="581.375"/><text fill="#000000" font-family="sans-serif" font-size="12" lengthAdjust="spacing" textLength="130" x="282" y="602.2383">Sistema genera reporte</text><text fill="#000000" font-family="sans-serif" font-size="12" lengthAdjust="spacing" textLength="131" x="282" y="615.6445">&#8226; Formato seleccionado</text><text fill="#000000" font-family="sans-serif" font-size="12" lengthAdjust="spacing" textLength="126" x="282" y="629.0508">&#8226; Descarga autom&#225;tica</text><rect fill="#F1F1F1" height="60.2188" rx="12.5" ry="12.5" style="stroke:#181818;stroke-width:0.5;" width="178" x="443" y="581.375"/><text fill="#000000" font-family="sans-serif" font-size="12" lengthAdjust="spacing" textLength="158" x="453" y="602.2383">Usuario contin&#250;a navegando</text><text fill="#000000" font-family="sans-serif" font-size="12" lengthAdjust="spacing" textLength="89" x="453" y="615.6445">&#8226; Actualiza filtros</text><text fill="#000000" font-family="sans-serif" font-size="12" lengthAdjust="spacing" textLength="142" x="453" y="629.0508">&#8226; Explora diferentes vistas</text><polygon fill="#F1F1F1" points="439.75,647.5938,451.75,659.5938,439.75,671.5938,427.75,659.5938,439.75,647.5938" style="stroke:#181818;stroke-width:0.5;"/><polygon fill="#F1F1F1" points="286.125,677.5938,298.125,689.5938,286.125,701.5938,274.125,689.5938,286.125,677.5938" style="stroke:#181818;stroke-width:0.5;"/><ellipse cx="286.125" cy="744.5938" fill="none" rx="11" ry="11" style="stroke:#222222;stroke-width:1.0;"/><ellipse cx="286.125" cy="744.5938" fill="#222222" rx="6" ry="6" style="stroke:#222222;stroke-width:1.0;"/><line style="stroke:#181818;stroke-width:1.0;" x1="286.125" x2="286.125" y1="66.6406" y2="86.6406"/><polygon fill="#181818" points="282.125,76.6406,286.125,86.6406,290.125,76.6406,286.125,80.6406" style="stroke:#181818;stroke-width:1.0;"/><line style="stroke:#181818;stroke-width:1.0;" x1="286.125" x2="286.125" y1="212.5" y2="232.5"/><polygon fill="#181818" points="282.125,222.5,286.125,232.5,290.125,222.5,286.125,226.5" style="stroke:#181818;stroke-width:1.0;"/><line style="stroke:#181818;stroke-width:1.0;" x1="439.75" x2="439.75" y1="420.3438" y2="440.3438"/><polygon fill="#181818" points="435.75,430.3438,439.75,440.3438,443.75,430.3438,439.75,434.3438" style="stroke:#181818;stroke-width:1.0;"/><line style="stroke:#181818;stroke-width:1.0;" x1="383.25" x2="347.5" y1="559.375" y2="559.375"/><line style="stroke:#181818;stroke-width:1.0;" x1="347.5" x2="347.5" y1="559.375" y2="581.375"/><polygon fill="#181818" points="343.5,571.375,347.5,581.375,351.5,571.375,347.5,575.375" style="stroke:#181818;stroke-width:1.0;"/><line style="stroke:#181818;stroke-width:1.0;" x1="496.25" x2="532" y1="559.375" y2="559.375"/><line style="stroke:#181818;stroke-width:1.0;" x1="532" x2="532" y1="559.375" y2="581.375"/><polygon fill="#181818" points="528,571.375,532,581.375,536,571.375,532,575.375" style="stroke:#181818;stroke-width:1.0;"/><line style="stroke:#181818;stroke-width:1.0;" x1="347.5" x2="347.5" y1="641.5938" y2="659.5938"/><line style="stroke:#181818;stroke-width:1.0;" x1="347.5" x2="427.75" y1="659.5938" y2="659.5938"/><polygon fill="#181818" points="417.75,655.5938,427.75,659.5938,417.75,663.5938,421.75,659.5938" style="stroke:#181818;stroke-width:1.0;"/><line style="stroke:#181818;stroke-width:1.0;" x1="532" x2="532" y1="641.5938" y2="659.5938"/><line style="stroke:#181818;stroke-width:1.0;" x1="532" x2="451.75" y1="659.5938" y2="659.5938"/><polygon fill="#181818" points="461.75,655.5938,451.75,659.5938,461.75,663.5938,457.75,659.5938" style="stroke:#181818;stroke-width:1.0;"/><line style="stroke:#181818;stroke-width:1.0;" x1="439.75" x2="439.75" y1="527.375" y2="547.375"/><polygon fill="#181818" points="435.75,537.375,439.75,547.375,443.75,537.375,439.75,541.375" style="stroke:#181818;stroke-width:1.0;"/><line style="stroke:#181818;stroke-width:1.0;" x1="225.625" x2="132.5" y1="324.7188" y2="324.7188"/><line style="stroke:#181818;stroke-width:1.0;" x1="132.5" x2="132.5" y1="324.7188" y2="346.7188"/><polygon fill="#181818" points="128.5,336.7188,132.5,346.7188,136.5,336.7188,132.5,340.7188" style="stroke:#181818;stroke-width:1.0;"/><line style="stroke:#181818;stroke-width:1.0;" x1="346.625" x2="439.75" y1="324.7188" y2="324.7188"/><line style="stroke:#181818;stroke-width:1.0;" x1="439.75" x2="439.75" y1="324.7188" y2="346.7188"/><polygon fill="#181818" points="435.75,336.7188,439.75,346.7188,443.75,336.7188,439.75,340.7188" style="stroke:#181818;stroke-width:1.0;"/><line style="stroke:#181818;stroke-width:1.0;" x1="132.5" x2="132.5" y1="420.3438" y2="689.5938"/><line style="stroke:#181818;stroke-width:1.0;" x1="132.5" x2="274.125" y1="689.5938" y2="689.5938"/><polygon fill="#181818" points="264.125,685.5938,274.125,689.5938,264.125,693.5938,268.125,689.5938" style="stroke:#181818;stroke-width:1.0;"/><line style="stroke:#181818;stroke-width:1.0;" x1="439.75" x2="439.75" y1="671.5938" y2="689.5938"/><line style="stroke:#181818;stroke-width:1.0;" x1="439.75" x2="298.125" y1="689.5938" y2="689.5938"/><polygon fill="#181818" points="308.125,685.5938,298.125,689.5938,308.125,693.5938,304.125,689.5938" style="stroke:#181818;stroke-width:1.0;"/><line style="stroke:#181818;stroke-width:1.0;" x1="286.125" x2="286.125" y1="292.7188" y2="312.7188"/><polygon fill="#181818" points="282.125,302.7188,286.125,312.7188,290.125,302.7188,286.125,306.7188" style="stroke:#181818;stroke-width:1.0;"/><line style="stroke:#181818;stroke-width:1.0;" x1="286.125" x2="286.125" y1="120.0469" y2="165.6875"/><polygon fill="#181818" points="282.125,155.6875,286.125,165.6875,290.125,155.6875,286.125,159.6875" style="stroke:#181818;stroke-width:1.0;"/><line style="stroke:#181818;stroke-width:1.0;" x1="286.125" x2="286.125" y1="701.5938" y2="733.5938"/><polygon fill="#181818" points="282.125,723.5938,286.125,733.5938,290.125,723.5938,286.125,727.5938" style="stroke:#181818;stroke-width:1.0;"/><!--SRC=[RLHDRnen4BtxLumumQ59W3O7EBGKQ4GI4bGIUgm6xq0SUUsLxKL9gqhzA-azXogtN2fr_qb_ISSidqqbjEnwdj_CctbsK44Jz2YWrfXOI4Z3X1pqVS2aUFH1IVH2y9SBGhGcW_5LvtEV7pr-6tGxuxOG6STKKDR040tTMjw_tAxAtV1L0F2lrKbIPNZHSI9tE2PDKlAk-0Ke9IK4g24jdf9SMzxmv_iFsAAWibTJXHENj6Ecf1H1efiZ9EXlfXPTiYBeMaCoS9JBcw8dLiYOOFqgFd9MaaTGPcPTYb8LJwPTCgiPL7__waKmi9ZC6ZNLvD_M8DoGWUg5hJ5gfu8qfwXkkHYv-yvPruBAXOKRl2_JWizdIYeoWNnbWnoIyNXBZDq89h31MSZ85OysiLliPROC-wXafZI3siiOFqYpmEguUFodi3aPSWYqDzGrNnSpbXrmnPhnD5BoXrZyj1lCo3h99NE9CIjcpaxBLcqG5yLpIYuQY1byo3L6XOTJuh4ewykMhkjysREzkPMC9wvuu5PnonHJEPH1BUosx2kSQZQN8v-djArZO19MnvPYALBZWljnDXhusd_RHtUiDco7lbzZEVzhdqS5Q-nc-fikl-opemYbLJGc_H2z5Ipu7TFlX7laI_TY7cnQFCG1jLVnvLyvsBNXEEEwAhPrKAPuHZ2iTOvcZxSZGuvQVS6LKVnEh7-NQHiRhsRabdQ41Sj0lv-OspdRs6lr8Rx56y5cuXsl236AixuUdiE2d8_NGFsWSTHe7jJhrK-Ky17EeDw4nb6hSTngDg7BrmT4G4rKJqRdu6tEveedB3WrpUD5KXEdk43ucBEub4_5PKRcj7UsNe2-MIXd3SyzYDF9S0iuVltglGgSqd4jC1cA7iqmru5tI9ieCsz1DwittZJ4EPfvZdCc9o-wbedTVGlwuxy0]--></g></svg>