<?xml version="1.0" encoding="us-ascii" standalone="no"?><svg xmlns="http://www.w3.org/2000/svg" xmlns:xlink="http://www.w3.org/1999/xlink" contentStyleType="text/css" height="1113px" preserveAspectRatio="none" style="width:765px;height:1113px;background:#FFFFFF;" version="1.1" viewBox="0 0 765 1113" width="765px" zoomAndPan="magnify"><defs/><g><text fill="#000000" font-family="sans-serif" font-size="14" font-weight="bold" lengthAdjust="spacing" textLength="189" x="286.5" y="32.6738">Detallado del Ver Progreso</text><ellipse cx="321.875" cy="56.6406" fill="#222222" rx="10" ry="10" style="stroke:#222222;stroke-width:1.0;"/><rect fill="#F1F1F1" height="33.4063" rx="12.5" ry="12.5" style="stroke:#181818;stroke-width:0.5;" width="159" x="242.375" y="86.6406"/><text fill="#000000" font-family="sans-serif" font-size="12" lengthAdjust="spacing" textLength="139" x="252.375" y="107.5039">VISTA_VER_PROGRESO</text><rect fill="none" height="929.9727" style="stroke:#000000;stroke-width:1.5;" width="743" x="11" y="130.0469"/><path d="M147,130.0469 L147,138.6875 L137,148.6875 L11,148.6875 " fill="none" style="stroke:#000000;stroke-width:1.5;"/><text fill="#000000" font-family="sans-serif" font-size="14" lengthAdjust="spacing" textLength="126" x="14" y="143.7207">ManejoVerProgreso</text><rect fill="#F1F1F1" height="60.2188" rx="12.5" ry="12.5" style="stroke:#181818;stroke-width:0.5;" width="257" x="193.375" y="165.6875"/><text fill="#000000" font-family="sans-serif" font-size="12" lengthAdjust="spacing" textLength="237" x="203.375" y="186.5508">Postulante/Becario accede a su dashboard</text><text fill="#000000" font-family="sans-serif" font-size="12" lengthAdjust="spacing" textLength="136" x="203.375" y="199.957">&#8226; Autenticaci&#243;n verificada</text><text fill="#000000" font-family="sans-serif" font-size="12" lengthAdjust="spacing" textLength="134" x="203.375" y="213.3633">&#8226; Carga perfil de usuario</text><rect fill="#F1F1F1" height="87.0313" rx="12.5" ry="12.5" style="stroke:#181818;stroke-width:0.5;" width="220" x="211.875" y="245.9063"/><text fill="#000000" font-family="sans-serif" font-size="12" lengthAdjust="spacing" textLength="200" x="221.875" y="266.7695">Sistema consulta datos de progreso</text><text fill="#000000" font-family="sans-serif" font-size="12" lengthAdjust="spacing" textLength="154" x="221.875" y="280.1758">&#8226; Capacitaciones realizadas</text><text fill="#000000" font-family="sans-serif" font-size="12" lengthAdjust="spacing" textLength="166" x="221.875" y="293.582">&#8226; Estado de cada capacitaci&#243;n</text><text fill="#000000" font-family="sans-serif" font-size="12" lengthAdjust="spacing" textLength="126" x="221.875" y="306.9883">&#8226; Porcentaje de avance</text><text fill="#000000" font-family="sans-serif" font-size="12" lengthAdjust="spacing" textLength="144" x="221.875" y="320.3945">&#8226; Calificaciones obtenidas</text><polygon fill="#F1F1F1" points="235.875,352.9375,407.875,352.9375,419.875,364.9375,407.875,376.9375,235.875,376.9375,223.875,364.9375,235.875,352.9375" style="stroke:#181818;stroke-width:0.5;"/><text fill="#000000" font-family="sans-serif" font-size="11" lengthAdjust="spacing" textLength="172" x="235.875" y="368.751">&#191;Tiene capacitaciones registradas?</text><text fill="#000000" font-family="sans-serif" font-size="11" lengthAdjust="spacing" textLength="13" x="210.875" y="362.6064">No</text><text fill="#000000" font-family="sans-serif" font-size="11" lengthAdjust="spacing" textLength="9" x="419.875" y="362.6064">S&#237;</text><rect fill="#F1F1F1" height="60.2188" rx="12.5" ry="12.5" style="stroke:#181818;stroke-width:0.5;" width="228" x="23" y="386.9375"/><text fill="#000000" font-family="sans-serif" font-size="12" lengthAdjust="spacing" textLength="95" x="33" y="407.8008">Sistema muestra</text><text fill="#000000" font-family="sans-serif" font-size="12" lengthAdjust="spacing" textLength="208" x="33" y="421.207">&#8226; Mensaje: "No tienes capacitaciones"</text><text fill="#000000" font-family="sans-serif" font-size="12" lengthAdjust="spacing" textLength="185" x="33" y="434.6133">&#8226; Bot&#243;n: "Explorar capacitaciones"</text><rect fill="#F1F1F1" height="73.625" rx="12.5" ry="12.5" style="stroke:#181818;stroke-width:0.5;" width="232" x="390.75" y="386.9375"/><text fill="#000000" font-family="sans-serif" font-size="12" lengthAdjust="spacing" textLength="212" x="400.75" y="407.8008">Sistema muestra dashboard completo</text><text fill="#000000" font-family="sans-serif" font-size="12" lengthAdjust="spacing" textLength="178" x="400.75" y="421.207">&#8226; Resumen general de progreso</text><text fill="#000000" font-family="sans-serif" font-size="12" lengthAdjust="spacing" textLength="179" x="400.75" y="434.6133">&#8226; Lista de capacitaciones activas</text><text fill="#000000" font-family="sans-serif" font-size="12" lengthAdjust="spacing" textLength="146" x="400.75" y="448.0195">&#8226; Historial de completadas</text><rect fill="#F1F1F1" height="100.4375" rx="12.5" ry="12.5" style="stroke:#181818;stroke-width:0.5;" width="230" x="391.75" y="528.707"/><text fill="#000000" font-family="sans-serif" font-size="12" lengthAdjust="spacing" textLength="194" x="401.75" y="549.5703">Sistema muestra detalle espec&#237;fico</text><text fill="#000000" font-family="sans-serif" font-size="12" lengthAdjust="spacing" textLength="136" x="401.75" y="562.9766">&#8226; Progreso por lecciones</text><text fill="#000000" font-family="sans-serif" font-size="12" lengthAdjust="spacing" textLength="210" x="401.75" y="576.3828">&#8226; Actividades completadas/pendientes</text><text fill="#000000" font-family="sans-serif" font-size="12" lengthAdjust="spacing" textLength="179" x="401.75" y="589.7891">&#8226; Calificaciones de evaluaciones</text><text fill="#000000" font-family="sans-serif" font-size="12" lengthAdjust="spacing" textLength="184" x="401.75" y="603.1953">&#8226; Tiempo restante para completar</text><text fill="#000000" font-family="sans-serif" font-size="12" lengthAdjust="spacing" textLength="148" x="401.75" y="616.6016">&#8226; Certificaciones obtenidas</text><rect fill="#F1F1F1" height="87.0313" rx="12.5" ry="12.5" style="stroke:#181818;stroke-width:0.5;" width="163" x="425.25" y="649.1445"/><text fill="#000000" font-family="sans-serif" font-size="12" lengthAdjust="spacing" textLength="139" x="435.25" y="670.0078">Usuario puede acceder a</text><text fill="#000000" font-family="sans-serif" font-size="12" lengthAdjust="spacing" textLength="140" x="435.25" y="683.4141">&#8226; Continuar donde lo dej&#243;</text><text fill="#000000" font-family="sans-serif" font-size="12" lengthAdjust="spacing" textLength="143" x="435.25" y="696.8203">&#8226; Revisar material anterior</text><text fill="#000000" font-family="sans-serif" font-size="12" lengthAdjust="spacing" textLength="125" x="435.25" y="710.2266">&#8226; Ver retroalimentaci&#243;n</text><text fill="#000000" font-family="sans-serif" font-size="12" lengthAdjust="spacing" textLength="132" x="435.25" y="723.6328">&#8226; Descargar certificados</text><polygon fill="#F1F1F1" points="440.75,756.1758,572.75,756.1758,584.75,768.1758,572.75,780.1758,440.75,780.1758,428.75,768.1758,440.75,756.1758" style="stroke:#181818;stroke-width:0.5;"/><text fill="#000000" font-family="sans-serif" font-size="11" lengthAdjust="spacing" textLength="132" x="440.75" y="771.9893">&#191;Capacitaci&#243;n completada?</text><text fill="#000000" font-family="sans-serif" font-size="11" lengthAdjust="spacing" textLength="9" x="419.75" y="765.8447">S&#237;</text><text fill="#000000" font-family="sans-serif" font-size="11" lengthAdjust="spacing" textLength="13" x="584.75" y="765.8447">No</text><rect fill="#F1F1F1" height="87.0313" rx="12.5" ry="12.5" style="stroke:#181818;stroke-width:0.5;" width="205" x="291" y="790.1758"/><text fill="#000000" font-family="sans-serif" font-size="12" lengthAdjust="spacing" textLength="91" x="301" y="811.0391">Sistema permite</text><text fill="#000000" font-family="sans-serif" font-size="12" lengthAdjust="spacing" textLength="125" x="301" y="824.4453">&#8226; Descargar certificado</text><text fill="#000000" font-family="sans-serif" font-size="12" lengthAdjust="spacing" textLength="116" x="301" y="837.8516">&#8226; Ver calificaci&#243;n final</text><text fill="#000000" font-family="sans-serif" font-size="12" lengthAdjust="spacing" textLength="185" x="301" y="851.2578">&#8226; Acceder a material de referencia</text><text fill="#000000" font-family="sans-serif" font-size="12" lengthAdjust="spacing" textLength="138" x="301" y="864.6641">&#8226; Calificar la capacitaci&#243;n</text><rect fill="#F1F1F1" height="73.625" rx="12.5" ry="12.5" style="stroke:#181818;stroke-width:0.5;" width="208" x="516" y="790.1758"/><text fill="#000000" font-family="sans-serif" font-size="12" lengthAdjust="spacing" textLength="95" x="526" y="811.0391">Sistema muestra</text><text fill="#000000" font-family="sans-serif" font-size="12" lengthAdjust="spacing" textLength="169" x="526" y="824.4453">&#8226; Siguiente actividad pendiente</text><text fill="#000000" font-family="sans-serif" font-size="12" lengthAdjust="spacing" textLength="176" x="526" y="837.8516">&#8226; Recordatorios de fechas l&#237;mite</text><text fill="#000000" font-family="sans-serif" font-size="12" lengthAdjust="spacing" textLength="188" x="526" y="851.2578">&#8226; Progreso requerido para avanzar</text><polygon fill="#F1F1F1" points="506.75,883.207,518.75,895.207,506.75,907.207,494.75,895.207,506.75,883.207" style="stroke:#181818;stroke-width:0.5;"/><polygon fill="#F1F1F1" points="422.75,480.5625,590.75,480.5625,602.75,492.5625,590.75,504.5625,422.75,504.5625,410.75,492.5625,422.75,480.5625" style="stroke:#181818;stroke-width:0.5;"/><text fill="#000000" font-family="sans-serif" font-size="11" lengthAdjust="spacing" textLength="9" x="510.75" y="514.5205">S&#237;</text><text fill="#000000" font-family="sans-serif" font-size="11" lengthAdjust="spacing" textLength="168" x="422.75" y="496.376">&#191;Usuario selecciona capacitaci&#243;n?</text><polygon fill="#F1F1F1" points="506.75,927.207,518.75,939.207,506.75,951.207,494.75,939.207,506.75,927.207" style="stroke:#181818;stroke-width:0.5;"/><rect fill="#F1F1F1" height="46.8125" rx="12.5" ry="12.5" style="stroke:#181818;stroke-width:0.5;" width="197" x="408.25" y="971.207"/><text fill="#000000" font-family="sans-serif" font-size="12" lengthAdjust="spacing" textLength="177" x="418.25" y="992.0703">Usuario puede generar reportes</text><text fill="#000000" font-family="sans-serif" font-size="12" lengthAdjust="spacing" textLength="160" x="418.25" y="1005.4766">&#8226; Exportar progreso completo</text><polygon fill="#F1F1F1" points="321.875,1024.0195,333.875,1036.0195,321.875,1048.0195,309.875,1036.0195,321.875,1024.0195" style="stroke:#181818;stroke-width:0.5;"/><ellipse cx="321.875" cy="1091.0195" fill="none" rx="11" ry="11" style="stroke:#222222;stroke-width:1.0;"/><ellipse cx="321.875" cy="1091.0195" fill="#222222" rx="6" ry="6" style="stroke:#222222;stroke-width:1.0;"/><line style="stroke:#181818;stroke-width:1.0;" x1="321.875" x2="321.875" y1="66.6406" y2="86.6406"/><polygon fill="#181818" points="317.875,76.6406,321.875,86.6406,325.875,76.6406,321.875,80.6406" style="stroke:#181818;stroke-width:1.0;"/><line style="stroke:#181818;stroke-width:1.0;" x1="321.875" x2="321.875" y1="225.9063" y2="245.9063"/><polygon fill="#181818" points="317.875,235.9063,321.875,245.9063,325.875,235.9063,321.875,239.9063" style="stroke:#181818;stroke-width:1.0;"/><line style="stroke:#181818;stroke-width:1.0;" x1="506.75" x2="506.75" y1="629.1445" y2="649.1445"/><polygon fill="#181818" points="502.75,639.1445,506.75,649.1445,510.75,639.1445,506.75,643.1445" style="stroke:#181818;stroke-width:1.0;"/><line style="stroke:#181818;stroke-width:1.0;" x1="428.75" x2="393.5" y1="768.1758" y2="768.1758"/><line style="stroke:#181818;stroke-width:1.0;" x1="393.5" x2="393.5" y1="768.1758" y2="790.1758"/><polygon fill="#181818" points="389.5,780.1758,393.5,790.1758,397.5,780.1758,393.5,784.1758" style="stroke:#181818;stroke-width:1.0;"/><line style="stroke:#181818;stroke-width:1.0;" x1="584.75" x2="620" y1="768.1758" y2="768.1758"/><line style="stroke:#181818;stroke-width:1.0;" x1="620" x2="620" y1="768.1758" y2="790.1758"/><polygon fill="#181818" points="616,780.1758,620,790.1758,624,780.1758,620,784.1758" style="stroke:#181818;stroke-width:1.0;"/><line style="stroke:#181818;stroke-width:1.0;" x1="393.5" x2="393.5" y1="877.207" y2="895.207"/><line style="stroke:#181818;stroke-width:1.0;" x1="393.5" x2="494.75" y1="895.207" y2="895.207"/><polygon fill="#181818" points="484.75,891.207,494.75,895.207,484.75,899.207,488.75,895.207" style="stroke:#181818;stroke-width:1.0;"/><line style="stroke:#181818;stroke-width:1.0;" x1="620" x2="620" y1="863.8008" y2="895.207"/><line style="stroke:#181818;stroke-width:1.0;" x1="620" x2="518.75" y1="895.207" y2="895.207"/><polygon fill="#181818" points="528.75,891.207,518.75,895.207,528.75,899.207,524.75,895.207" style="stroke:#181818;stroke-width:1.0;"/><line style="stroke:#181818;stroke-width:1.0;" x1="506.75" x2="506.75" y1="736.1758" y2="756.1758"/><polygon fill="#181818" points="502.75,746.1758,506.75,756.1758,510.75,746.1758,506.75,750.1758" style="stroke:#181818;stroke-width:1.0;"/><line style="stroke:#181818;stroke-width:1.0;" x1="506.75" x2="506.75" y1="504.5625" y2="528.707"/><polygon fill="#181818" points="502.75,518.707,506.75,528.707,510.75,518.707,506.75,522.707" style="stroke:#181818;stroke-width:1.0;"/><line style="stroke:#181818;stroke-width:1.0;" x1="602.75" x2="738" y1="492.5625" y2="492.5625"/><polygon fill="#181818" points="734,707.957,738,717.957,742,707.957,738,711.957" style="stroke:#181818;stroke-width:1.0;"/><line style="stroke:#181818;stroke-width:1.0;" x1="738" x2="738" y1="492.5625" y2="939.207"/><line style="stroke:#181818;stroke-width:1.0;" x1="738" x2="518.75" y1="939.207" y2="939.207"/><polygon fill="#181818" points="528.75,935.207,518.75,939.207,528.75,943.207,524.75,939.207" style="stroke:#181818;stroke-width:1.0;"/><line style="stroke:#181818;stroke-width:1.0;" x1="506.75" x2="506.75" y1="907.207" y2="927.207"/><polygon fill="#181818" points="502.75,917.207,506.75,927.207,510.75,917.207,506.75,921.207" style="stroke:#181818;stroke-width:1.0;"/><line style="stroke:#181818;stroke-width:1.0;" x1="506.75" x2="506.75" y1="460.5625" y2="480.5625"/><polygon fill="#181818" points="502.75,470.5625,506.75,480.5625,510.75,470.5625,506.75,474.5625" style="stroke:#181818;stroke-width:1.0;"/><line style="stroke:#181818;stroke-width:1.0;" x1="506.75" x2="506.75" y1="951.207" y2="971.207"/><polygon fill="#181818" points="502.75,961.207,506.75,971.207,510.75,961.207,506.75,965.207" style="stroke:#181818;stroke-width:1.0;"/><line style="stroke:#181818;stroke-width:1.0;" x1="223.875" x2="137" y1="364.9375" y2="364.9375"/><line style="stroke:#181818;stroke-width:1.0;" x1="137" x2="137" y1="364.9375" y2="386.9375"/><polygon fill="#181818" points="133,376.9375,137,386.9375,141,376.9375,137,380.9375" style="stroke:#181818;stroke-width:1.0;"/><line style="stroke:#181818;stroke-width:1.0;" x1="419.875" x2="506.75" y1="364.9375" y2="364.9375"/><line style="stroke:#181818;stroke-width:1.0;" x1="506.75" x2="506.75" y1="364.9375" y2="386.9375"/><polygon fill="#181818" points="502.75,376.9375,506.75,386.9375,510.75,376.9375,506.75,380.9375" style="stroke:#181818;stroke-width:1.0;"/><line style="stroke:#181818;stroke-width:1.0;" x1="137" x2="137" y1="447.1563" y2="1036.0195"/><line style="stroke:#181818;stroke-width:1.0;" x1="137" x2="309.875" y1="1036.0195" y2="1036.0195"/><polygon fill="#181818" points="299.875,1032.0195,309.875,1036.0195,299.875,1040.0195,303.875,1036.0195" style="stroke:#181818;stroke-width:1.0;"/><line style="stroke:#181818;stroke-width:1.0;" x1="506.75" x2="506.75" y1="1018.0195" y2="1036.0195"/><line style="stroke:#181818;stroke-width:1.0;" x1="506.75" x2="333.875" y1="1036.0195" y2="1036.0195"/><polygon fill="#181818" points="343.875,1032.0195,333.875,1036.0195,343.875,1040.0195,339.875,1036.0195" style="stroke:#181818;stroke-width:1.0;"/><line style="stroke:#181818;stroke-width:1.0;" x1="321.875" x2="321.875" y1="332.9375" y2="352.9375"/><polygon fill="#181818" points="317.875,342.9375,321.875,352.9375,325.875,342.9375,321.875,346.9375" style="stroke:#181818;stroke-width:1.0;"/><line style="stroke:#181818;stroke-width:1.0;" x1="321.875" x2="321.875" y1="120.0469" y2="165.6875"/><polygon fill="#181818" points="317.875,155.6875,321.875,165.6875,325.875,155.6875,321.875,159.6875" style="stroke:#181818;stroke-width:1.0;"/><line style="stroke:#181818;stroke-width:1.0;" x1="321.875" x2="321.875" y1="1048.0195" y2="1080.0195"/><polygon fill="#181818" points="317.875,1070.0195,321.875,1080.0195,325.875,1070.0195,321.875,1074.0195" style="stroke:#181818;stroke-width:1.0;"/><!--SRC=[TLN1Rjim3BtxAuYTsbFlpM58ss0RiBP1qlLQi3ATgf15JvA3eiE0VSlkFVK31Yn_iYyPPLkAawP0uYJMy-CZ-SW47Gp11GKq1ak6aWpSaeEvuvKZpqNX0xfG5AUtNvOtqxlRsU9klhZ-j9WjhoT5qSYP3fejNAAbHvP7qvFmem2Gr-cSVMWDsa0dPwJGQGPKYae21Dz2YVxXdj6LWlttwpTCsq0sQ8LARrujhCdfIdwLE9oVeriXDEGgRKGkjBwDd9C-MWour3vGZQ3O-jO4b121VSGsAQj4rKYK86-svC4H6lqiaVnmFfFSkvf0Z2-N11TX0sJEJebSVAG8mpLQHPdTTCe7ThwNlBIG3qfr1KT__zneiZHY7eIi90KNbNmyXl105ewk-5WU6cLNjnGntSqOxfAi5ncdyE6A8KHQlyVx8MFFE4WA0fqzDOOTkdrar0WTN2vaFC7HSlDoMC6sWrBnkZ4KE0TQa6zhaRyIEGxDNWzwp5UXmxx8ErL05VIwwqMF-omuThfd6IBXKC-iDNsc-dxhtG6U3Ab8lDV6ND-Stg44k_4W8D-Gshn8Ktc0TXP8Xc_OmH25_0WmZOb8vylOaQtkauPiANqAE-0zrqYgj4RJuXjMSKxTi7X5gYSS8AE8cTwD6Kbcz3qZvd99sgbMJTiDPpUZ3d1CnJAPLb1GiXMCYSFnk7aTGHQqrbu0DGRgcXN52UjOKLmmZe9ZoRMEqvCcAW4koAiuvkBB9BxaVRrzWy_7tHoLzr1ZHwsL_L7hGFdWtQWxY2XSvGR5W9MsQ7OmqrItRGcaKeugScILnXrmwhOOPy-OaumRllHJcDR0kwiWCI_rgktCrSzHj1zam-qW5wJOnHKfNUeCLv5wG0zcy_AcHDdhZhwtafninyvtSV4zetihMW9MuxPjRnG7FDUlYMWEcQKq5zqcVeetv2HjZxng9WDPNbP3WE9d_ElYvZy0]--></g></svg>