<?xml version="1.0" encoding="us-ascii" standalone="no"?><svg xmlns="http://www.w3.org/2000/svg" xmlns:xlink="http://www.w3.org/1999/xlink" contentStyleType="text/css" height="818px" preserveAspectRatio="none" style="width:715px;height:818px;background:#FFFFFF;" version="1.1" viewBox="0 0 715 818" width="715px" zoomAndPan="magnify"><defs/><g><text fill="#000000" font-family="sans-serif" font-size="14" font-weight="bold" lengthAdjust="spacing" textLength="294" x="209" y="33.5352">Detallado del Ver Resultado (Postulante)</text><ellipse cx="301.375" cy="57.4883" fill="#222222" rx="10" ry="10" style="stroke:#222222;stroke-width:1.0;"/><rect fill="#F1F1F1" height="34.1328" rx="12.5" ry="12.5" style="stroke:#181818;stroke-width:0.5;" width="157" x="222.875" y="87.4883"/><text fill="#000000" font-family="sans-serif" font-size="12" lengthAdjust="spacing" textLength="137" x="232.875" y="109.0898">VISTA_VER_RESULTADO</text><rect fill="none" height="634.3477" style="stroke:#000000;stroke-width:1.5;" width="693" x="11" y="131.6211"/><path d="M162,131.6211 L162,141.1094 L152,151.1094 L11,151.1094 " fill="none" style="stroke:#000000;stroke-width:1.5;"/><text fill="#000000" font-family="sans-serif" font-size="14" lengthAdjust="spacing" textLength="141" x="14" y="146.1563">ManejoVerResultado</text><rect fill="#F1F1F1" height="34.1328" rx="12.5" ry="12.5" style="stroke:#181818;stroke-width:0.5;" width="270" x="166.375" y="168.1094"/><text fill="#000000" font-family="sans-serif" font-size="12" lengthAdjust="spacing" textLength="250" x="176.375" y="189.7109">Postulante solicita acceder a sus resultados</text><rect fill="#F1F1F1" height="34.1328" rx="12.5" ry="12.5" style="stroke:#181818;stroke-width:0.5;" width="261" x="170.875" y="222.2422"/><text fill="#000000" font-family="sans-serif" font-size="12" lengthAdjust="spacing" textLength="241" x="180.875" y="243.8438">Sistema permite acceder a sus resultados</text><rect fill="#F1F1F1" height="90.6641" rx="12.5" ry="12.5" style="stroke:#181818;stroke-width:0.5;" width="214" x="194.375" y="276.375"/><text fill="#000000" font-family="sans-serif" font-size="12" lengthAdjust="spacing" textLength="176" x="204.375" y="297.9766">Sistema presenta lista de tests</text><text fill="#000000" font-family="sans-serif" font-size="12" lengthAdjust="spacing" textLength="120" x="204.375" y="312.1094">&#8226; Tests completados</text><text fill="#000000" font-family="sans-serif" font-size="12" lengthAdjust="spacing" textLength="135" x="204.375" y="326.2422">&#8226; Estado de calificaci&#243;n</text><text fill="#000000" font-family="sans-serif" font-size="12" lengthAdjust="spacing" textLength="129" x="204.375" y="340.375">&#8226; Fecha de realizaci&#243;n</text><text fill="#000000" font-family="sans-serif" font-size="12" lengthAdjust="spacing" textLength="194" x="204.375" y="354.5078">&#8226; Puntaje obtenido (si disponible)</text><polygon fill="#F1F1F1" points="238.375,387.0391,364.375,387.0391,376.375,399.0391,364.375,411.0391,238.375,411.0391,226.375,399.0391,238.375,387.0391" style="stroke:#181818;stroke-width:0.5;"/><text fill="#000000" font-family="sans-serif" font-size="11" lengthAdjust="spacing" textLength="126" x="238.375" y="403.1963">&#191;Tiene tests realizados?</text><text fill="#000000" font-family="sans-serif" font-size="11" lengthAdjust="spacing" textLength="15" x="211.375" y="396.7188">No</text><text fill="#000000" font-family="sans-serif" font-size="11" lengthAdjust="spacing" textLength="9" x="376.375" y="396.7188">S&#237;</text><rect fill="#F1F1F1" height="48.2656" rx="12.5" ry="12.5" style="stroke:#181818;stroke-width:0.5;" width="224" x="23" y="421.0391"/><text fill="#000000" font-family="sans-serif" font-size="12" lengthAdjust="spacing" textLength="95" x="33" y="442.6406">Sistema muestra</text><text fill="#000000" font-family="sans-serif" font-size="12" lengthAdjust="spacing" textLength="204" x="33" y="456.7734">&#8226; Mensaje: "No has realizado tests"</text><rect fill="#F1F1F1" height="34.1328" rx="12.5" ry="12.5" style="stroke:#181818;stroke-width:0.5;" width="276" x="329.75" y="421.0391"/><text fill="#000000" font-family="sans-serif" font-size="12" lengthAdjust="spacing" textLength="256" x="339.75" y="442.6406">Postulante solicita seleccionar test espec&#237;fico</text><rect fill="#F1F1F1" height="34.1328" rx="12.5" ry="12.5" style="stroke:#181818;stroke-width:0.5;" width="181" x="377.25" y="489.3047"/><text fill="#000000" font-family="sans-serif" font-size="12" lengthAdjust="spacing" textLength="161" x="387.25" y="510.9063">Sistema permite seleccionar</text><polygon fill="#F1F1F1" points="406.75,543.4375,528.75,543.4375,540.75,555.4375,528.75,567.4375,406.75,567.4375,394.75,555.4375,406.75,543.4375" style="stroke:#181818;stroke-width:0.5;"/><text fill="#000000" font-family="sans-serif" font-size="11" lengthAdjust="spacing" textLength="122" x="406.75" y="559.5947">&#191;Resultado disponible?</text><text fill="#000000" font-family="sans-serif" font-size="11" lengthAdjust="spacing" textLength="15" x="379.75" y="553.1172">No</text><text fill="#000000" font-family="sans-serif" font-size="11" lengthAdjust="spacing" textLength="9" x="540.75" y="553.1172">S&#237;</text><rect fill="#F1F1F1" height="48.2656" rx="12.5" ry="12.5" style="stroke:#181818;stroke-width:0.5;" width="164" x="277" y="577.4375"/><text fill="#000000" font-family="sans-serif" font-size="12" lengthAdjust="spacing" textLength="138" x="287" y="599.0391">Sistema muestra estado</text><text fill="#000000" font-family="sans-serif" font-size="12" lengthAdjust="spacing" textLength="144" x="287" y="613.1719">&#8226; "Resultado en proceso"</text><rect fill="#F1F1F1" height="34.1328" rx="12.5" ry="12.5" style="stroke:#181818;stroke-width:0.5;" width="231" x="461" y="577.4375"/><text fill="#000000" font-family="sans-serif" font-size="12" lengthAdjust="spacing" textLength="211" x="471" y="599.0391">Sistema muestra resultado detallado</text><polygon fill="#F1F1F1" points="467.75,631.7031,479.75,643.7031,467.75,655.7031,455.75,643.7031,467.75,631.7031" style="stroke:#181818;stroke-width:0.5;"/><rect fill="#F1F1F1" height="48.2656" rx="12.5" ry="12.5" style="stroke:#181818;stroke-width:0.5;" width="190" x="372.75" y="675.7031"/><text fill="#000000" font-family="sans-serif" font-size="12" lengthAdjust="spacing" textLength="170" x="382.75" y="697.3047">Sistema actualiza estad&#237;sticas</text><text fill="#000000" font-family="sans-serif" font-size="12" lengthAdjust="spacing" textLength="134" x="382.75" y="711.4375">&#8226; Historial de consultas</text><polygon fill="#F1F1F1" points="301.375,729.9688,313.375,741.9688,301.375,753.9688,289.375,741.9688,301.375,729.9688" style="stroke:#181818;stroke-width:0.5;"/><ellipse cx="301.375" cy="796.9688" fill="none" rx="11" ry="11" style="stroke:#222222;stroke-width:1.0;"/><ellipse cx="301.375" cy="796.9688" fill="#222222" rx="6" ry="6" style="stroke:#222222;stroke-width:1.0;"/><line style="stroke:#181818;stroke-width:1.0;" x1="301.375" x2="301.375" y1="67.4883" y2="87.4883"/><polygon fill="#181818" points="297.375,77.4883,301.375,87.4883,305.375,77.4883,301.375,81.4883" style="stroke:#181818;stroke-width:1.0;"/><line style="stroke:#181818;stroke-width:1.0;" x1="301.375" x2="301.375" y1="202.2422" y2="222.2422"/><polygon fill="#181818" points="297.375,212.2422,301.375,222.2422,305.375,212.2422,301.375,216.2422" style="stroke:#181818;stroke-width:1.0;"/><line style="stroke:#181818;stroke-width:1.0;" x1="301.375" x2="301.375" y1="256.375" y2="276.375"/><polygon fill="#181818" points="297.375,266.375,301.375,276.375,305.375,266.375,301.375,270.375" style="stroke:#181818;stroke-width:1.0;"/><line style="stroke:#181818;stroke-width:1.0;" x1="467.75" x2="467.75" y1="455.1719" y2="489.3047"/><polygon fill="#181818" points="463.75,479.3047,467.75,489.3047,471.75,479.3047,467.75,483.3047" style="stroke:#181818;stroke-width:1.0;"/><line style="stroke:#181818;stroke-width:1.0;" x1="394.75" x2="359" y1="555.4375" y2="555.4375"/><line style="stroke:#181818;stroke-width:1.0;" x1="359" x2="359" y1="555.4375" y2="577.4375"/><polygon fill="#181818" points="355,567.4375,359,577.4375,363,567.4375,359,571.4375" style="stroke:#181818;stroke-width:1.0;"/><line style="stroke:#181818;stroke-width:1.0;" x1="540.75" x2="576.5" y1="555.4375" y2="555.4375"/><line style="stroke:#181818;stroke-width:1.0;" x1="576.5" x2="576.5" y1="555.4375" y2="577.4375"/><polygon fill="#181818" points="572.5,567.4375,576.5,577.4375,580.5,567.4375,576.5,571.4375" style="stroke:#181818;stroke-width:1.0;"/><line style="stroke:#181818;stroke-width:1.0;" x1="359" x2="359" y1="625.7031" y2="643.7031"/><line style="stroke:#181818;stroke-width:1.0;" x1="359" x2="455.75" y1="643.7031" y2="643.7031"/><polygon fill="#181818" points="445.75,639.7031,455.75,643.7031,445.75,647.7031,449.75,643.7031" style="stroke:#181818;stroke-width:1.0;"/><line style="stroke:#181818;stroke-width:1.0;" x1="576.5" x2="576.5" y1="611.5703" y2="643.7031"/><line style="stroke:#181818;stroke-width:1.0;" x1="576.5" x2="479.75" y1="643.7031" y2="643.7031"/><polygon fill="#181818" points="489.75,639.7031,479.75,643.7031,489.75,647.7031,485.75,643.7031" style="stroke:#181818;stroke-width:1.0;"/><line style="stroke:#181818;stroke-width:1.0;" x1="467.75" x2="467.75" y1="523.4375" y2="543.4375"/><polygon fill="#181818" points="463.75,533.4375,467.75,543.4375,471.75,533.4375,467.75,537.4375" style="stroke:#181818;stroke-width:1.0;"/><line style="stroke:#181818;stroke-width:1.0;" x1="467.75" x2="467.75" y1="655.7031" y2="675.7031"/><polygon fill="#181818" points="463.75,665.7031,467.75,675.7031,471.75,665.7031,467.75,669.7031" style="stroke:#181818;stroke-width:1.0;"/><line style="stroke:#181818;stroke-width:1.0;" x1="226.375" x2="135" y1="399.0391" y2="399.0391"/><line style="stroke:#181818;stroke-width:1.0;" x1="135" x2="135" y1="399.0391" y2="421.0391"/><polygon fill="#181818" points="131,411.0391,135,421.0391,139,411.0391,135,415.0391" style="stroke:#181818;stroke-width:1.0;"/><line style="stroke:#181818;stroke-width:1.0;" x1="376.375" x2="467.75" y1="399.0391" y2="399.0391"/><line style="stroke:#181818;stroke-width:1.0;" x1="467.75" x2="467.75" y1="399.0391" y2="421.0391"/><polygon fill="#181818" points="463.75,411.0391,467.75,421.0391,471.75,411.0391,467.75,415.0391" style="stroke:#181818;stroke-width:1.0;"/><line style="stroke:#181818;stroke-width:1.0;" x1="135" x2="135" y1="469.3047" y2="741.9688"/><line style="stroke:#181818;stroke-width:1.0;" x1="135" x2="289.375" y1="741.9688" y2="741.9688"/><polygon fill="#181818" points="279.375,737.9688,289.375,741.9688,279.375,745.9688,283.375,741.9688" style="stroke:#181818;stroke-width:1.0;"/><line style="stroke:#181818;stroke-width:1.0;" x1="467.75" x2="467.75" y1="723.9688" y2="741.9688"/><line style="stroke:#181818;stroke-width:1.0;" x1="467.75" x2="313.375" y1="741.9688" y2="741.9688"/><polygon fill="#181818" points="323.375,737.9688,313.375,741.9688,323.375,745.9688,319.375,741.9688" style="stroke:#181818;stroke-width:1.0;"/><line style="stroke:#181818;stroke-width:1.0;" x1="301.375" x2="301.375" y1="367.0391" y2="387.0391"/><polygon fill="#181818" points="297.375,377.0391,301.375,387.0391,305.375,377.0391,301.375,381.0391" style="stroke:#181818;stroke-width:1.0;"/><line style="stroke:#181818;stroke-width:1.0;" x1="301.375" x2="301.375" y1="121.6211" y2="168.1094"/><polygon fill="#181818" points="297.375,158.1094,301.375,168.1094,305.375,158.1094,301.375,162.1094" style="stroke:#181818;stroke-width:1.0;"/><line style="stroke:#181818;stroke-width:1.0;" x1="301.375" x2="301.375" y1="753.9688" y2="785.9688"/><polygon fill="#181818" points="297.375,775.9688,301.375,785.9688,305.375,775.9688,301.375,779.9688" style="stroke:#181818;stroke-width:1.0;"/><!--SRC=[TLF1QXj13BtFLmYVx5zm3YKGbnQQDDYEhq6PbR72U6OPQIyjXNnBxpxr0mhnd-HBgXsFlMxZmhAxI7hlwKapoXe8RaWn16mID1HWHHdc95tGFZA-Jw9TmAWqSKuKipetNNrUBAyVLxFvutosUFYolBxvUkLSQqbMJX5kCT9pCgQ1wBi3i6Swy86am9uL0RsdncGHf1F8HumOfo4MB4fRX9RobWts_-g3mgdUKXIDFbW0pHieYOgLlBtyX6N_3pvjsq05NkCpqSCam6FWDNlqlFyLQ_OZ-KsXocJPRt_bxZiJUoP8JqgH-za9GyFIfiXFWIQrFrx3-FNtaYdMXevSriE72UY68eplqiHApyniEolDM8Azs2r5CR4fZEuIRF2Cv40wkYgbzg8W1EF5VbSPBor0A93tjZdC1GuaBVdzpkodieGBQpZ3dBIExeQr3_xVUNllpcHxKCtsDaS3aq7Rd3n9gjwgOltyO_C2UHwQEXxuYqInuVLWw4I3NhiouaEN-vse7GuvRUIJrQNC6ChPIR68oTbetC3jVlHtARL_0000]--></g></svg>