<?xml version="1.0" encoding="us-ascii" standalone="no"?><svg xmlns="http://www.w3.org/2000/svg" xmlns:xlink="http://www.w3.org/1999/xlink" contentStyleType="text/css" height="575px" preserveAspectRatio="none" style="width:586px;height:575px;background:#FFFFFF;" version="1.1" viewBox="0 0 586 575" width="586px" zoomAndPan="magnify"><defs/><g><g id="NoAuth"><rect fill="#F0F8FF" height="50" rx="12.5" ry="12.5" style="stroke:#4682B4;stroke-width:0.5;" width="145" x="259.41" y="87"/><line style="stroke:#4682B4;stroke-width:0.5;" x1="259.41" x2="404.41" y1="112.6406" y2="112.6406"/><text fill="#000000" font-family="sans-serif" font-size="14" lengthAdjust="spacing" textLength="125" x="269.41" y="104.6738">NO_AUTENTICADO</text></g><g id="Menu"><rect fill="#F0F8FF" height="50" rx="12.5" ry="12.5" style="stroke:#4682B4;stroke-width:0.5;" width="136" x="263.91" y="231"/><line style="stroke:#4682B4;stroke-width:0.5;" x1="263.91" x2="399.91" y1="256.6406" y2="256.6406"/><text fill="#000000" font-family="sans-serif" font-size="14" lengthAdjust="spacing" textLength="116" x="273.91" y="248.6738">MENU_PRINCIPAL</text></g><g id="Menu_estadisticas"><rect fill="#F0F8FF" height="50" rx="12.5" ry="12.5" style="stroke:#4682B4;stroke-width:0.5;" width="164" x="57.91" y="375"/><line style="stroke:#4682B4;stroke-width:0.5;" x1="57.91" x2="221.91" y1="400.6406" y2="400.6406"/><text fill="#000000" font-family="sans-serif" font-size="14" lengthAdjust="spacing" textLength="144" x="67.91" y="392.6738">MENU_ESTADISTICAS</text></g><g id="Menu_usuarios"><rect fill="#F0F8FF" height="50" rx="12.5" ry="12.5" style="stroke:#4682B4;stroke-width:0.5;" width="135" x="375.41" y="375"/><line style="stroke:#4682B4;stroke-width:0.5;" x1="375.41" x2="510.41" y1="400.6406" y2="400.6406"/><text fill="#000000" font-family="sans-serif" font-size="14" lengthAdjust="spacing" textLength="115" x="385.41" y="392.6738">MENU_USUARIOS</text></g><g id="Ver_usuario"><rect fill="#F0F8FF" height="50" rx="12.5" ry="12.5" style="stroke:#4682B4;stroke-width:0.5;" width="116" x="360.91" y="519"/><line style="stroke:#4682B4;stroke-width:0.5;" x1="360.91" x2="476.91" y1="544.6406" y2="544.6406"/><text fill="#000000" font-family="sans-serif" font-size="14" lengthAdjust="spacing" textLength="96" x="370.91" y="536.6738">VER_USUARIO</text></g><ellipse cx="331.91" cy="16" fill="#222222" rx="10" ry="10" style="stroke:#222222;stroke-width:1.0;"/><g id="Consultar_estad&#237;sticas"><rect fill="#F0F8FF" height="50" rx="12.5" ry="12.5" style="stroke:#4682B4;stroke-width:0.5;" width="163" x="101.41" y="519"/><line style="stroke:#4682B4;stroke-width:0.5;" x1="101.41" x2="264.41" y1="544.6406" y2="544.6406"/><text fill="#000000" font-family="sans-serif" font-size="14" lengthAdjust="spacing" textLength="143" x="111.41" y="536.6738">Consultar_estad&#237;sticas</text></g><!--link *start* to NoAuth--><g id="link_*start*_NoAuth"><path d="M331.91,26.01 C331.91,39.89 331.91,60.97 331.91,80.84 " fill="none" id="*start*-to-NoAuth" style="stroke:#4682B4;stroke-width:1.0;"/><polygon fill="#4682B4" points="331.91,86.84,335.91,77.84,331.91,81.84,327.91,77.84,331.91,86.84" style="stroke:#4682B4;stroke-width:1.0;"/></g><!--link NoAuth to Menu--><g id="link_NoAuth_Menu"><path d="M283.53,137.01 C272.47,144.95 262.14,154.92 255.91,167 C248.97,180.43 248.97,187.57 255.91,201 C262.14,213.08 267.596,219.5509 278.656,227.4909 " fill="none" id="NoAuth-to-Menu" style="stroke:#4682B4;stroke-width:1.0;"/><polygon fill="#4682B4" points="283.53,230.99,278.5517,222.492,279.4683,228.0741,273.8862,228.9907,283.53,230.99" style="stroke:#4682B4;stroke-width:1.0;"/><path d="M260.91,172 L260.91,196 L357.91,196 L357.91,182 L347.91,172 L260.91,172 " fill="#FEFFDD" style="stroke:#181818;stroke-width:0.5;"/><path d="M347.91,172 L347.91,182 L357.91,182 L347.91,172 " fill="#FEFFDD" style="stroke:#181818;stroke-width:0.5;"/><text fill="#000000" font-family="sans-serif" font-size="13" lengthAdjust="spacing" textLength="76" x="266.91" y="188.7686">Iniciar sesi&#243;n</text></g><!--link Menu to NoAuth--><g id="link_Menu_NoAuth"><path d="M351.71,230.95 C357.82,222.08 363.77,211.61 366.91,201 C371.19,186.51 371.19,181.49 366.91,167 C363.77,156.39 361.2237,150.8612 355.1137,141.9912 " fill="none" id="Menu-to-NoAuth" style="stroke:#4682B4;stroke-width:1.0;"/><polygon fill="#4682B4" points="351.71,137.05,353.5214,146.7309,354.5464,141.1676,360.1096,142.1926,351.71,137.05" style="stroke:#4682B4;stroke-width:1.0;"/><path d="M375.91,172 L375.91,196 L473.91,196 L473.91,182 L463.91,172 L375.91,172 " fill="#FEFFDD" style="stroke:#181818;stroke-width:0.5;"/><path d="M463.91,172 L463.91,182 L473.91,182 L463.91,172 " fill="#FEFFDD" style="stroke:#181818;stroke-width:0.5;"/><text fill="#000000" font-family="sans-serif" font-size="13" lengthAdjust="spacing" textLength="77" x="381.91" y="188.7686">Cerrar sesi&#243;n</text></g><!--link Menu to Menu_usuarios--><g id="link_Menu_Menu_usuarios"><path d="M341.49,281.32 C349.52,299.91 362.2,325.56 377.91,345 C386.76,355.95 393.4329,362.5317 404.1729,371.1617 " fill="none" id="Menu-to-Menu_usuarios" style="stroke:#4682B4;stroke-width:1.0;"/><polygon fill="#4682B4" points="408.85,374.92,404.3398,366.1645,404.9524,371.7881,399.3288,372.4007,408.85,374.92" style="stroke:#4682B4;stroke-width:1.0;"/><path d="M382.91,316 L382.91,340 L512.91,340 L512.91,326 L502.91,316 L382.91,316 " fill="#FEFFDD" style="stroke:#181818;stroke-width:0.5;"/><path d="M502.91,316 L502.91,326 L512.91,326 L502.91,316 " fill="#FEFFDD" style="stroke:#181818;stroke-width:0.5;"/><text fill="#000000" font-family="sans-serif" font-size="13" lengthAdjust="spacing" textLength="109" x="388.91" y="332.7686">Gestionar usuarios</text></g><!--link Menu_usuarios to Menu--><g id="link_Menu_usuarios_Menu"><path d="M493.97,374.77 C505.16,366.92 515.55,357.05 521.91,345 C528.96,331.64 531.01,323.06 521.91,311 C506.97,291.23 454.2579,277.672 406.0379,268.662 " fill="none" id="Menu_usuarios-to-Menu" style="stroke:#4682B4;stroke-width:1.0;"/><polygon fill="#4682B4" points="400.14,267.56,408.2522,273.145,405.0549,268.4784,409.7216,265.2811,400.14,267.56" style="stroke:#4682B4;stroke-width:1.0;"/><path d="M532.91,316 L532.91,340 L579.91,340 L579.91,326 L569.91,316 L532.91,316 " fill="#FEFFDD" style="stroke:#181818;stroke-width:0.5;"/><path d="M569.91,316 L569.91,326 L579.91,326 L569.91,316 " fill="#FEFFDD" style="stroke:#181818;stroke-width:0.5;"/><text fill="#000000" font-family="sans-serif" font-size="13" lengthAdjust="spacing" textLength="26" x="538.91" y="332.7686">Salir</text></g><!--link Menu_usuarios to Ver_usuario--><g id="link_Menu_usuarios_Ver_usuario"><path d="M404.89,425.2 C395.27,433.39 386.17,443.44 380.91,455 C371.12,476.51 380.2817,496.4287 393.5917,514.1887 " fill="none" id="Menu_usuarios-to-Ver_usuario" style="stroke:#4682B4;stroke-width:1.0;"/><polygon fill="#4682B4" points="397.19,518.99,394.9935,509.3892,394.1914,514.9889,388.5917,514.1869,397.19,518.99" style="stroke:#4682B4;stroke-width:1.0;"/><path d="M385.91,460 L385.91,484 L454.91,484 L454.91,470 L444.91,460 L385.91,460 " fill="#FEFFDD" style="stroke:#181818;stroke-width:0.5;"/><path d="M444.91,460 L444.91,470 L454.91,470 L444.91,460 " fill="#FEFFDD" style="stroke:#181818;stroke-width:0.5;"/><text fill="#000000" font-family="sans-serif" font-size="13" lengthAdjust="spacing" textLength="48" x="391.91" y="476.7686">Ver lista</text></g><!--link Ver_usuario to Menu_usuarios--><g id="link_Ver_usuario_Menu_usuarios"><path d="M444.99,518.99 C452.59,510.36 459.92,500.02 463.91,489 C471.5,468.03 466.6559,448.7288 458.6559,430.8088 " fill="none" id="Ver_usuario-to-Menu_usuarios" style="stroke:#4682B4;stroke-width:1.0;"/><polygon fill="#4682B4" points="456.21,425.33,456.2263,435.1788,458.2483,429.8957,463.5314,431.9176,456.21,425.33" style="stroke:#4682B4;stroke-width:1.0;"/><path d="M472.91,460 L472.91,484 L519.91,484 L519.91,470 L509.91,460 L472.91,460 " fill="#FEFFDD" style="stroke:#181818;stroke-width:0.5;"/><path d="M509.91,460 L509.91,470 L519.91,470 L509.91,460 " fill="#FEFFDD" style="stroke:#181818;stroke-width:0.5;"/><text fill="#000000" font-family="sans-serif" font-size="13" lengthAdjust="spacing" textLength="26" x="478.91" y="476.7686">Salir</text></g><!--link Menu to Menu_estadisticas--><g id="link_Menu_Menu_estadisticas"><path d="M263.79,262.2 C197.5,268.84 103.52,283 80.91,311 C64.38,331.46 80.162,352.6181 101.352,370.7581 " fill="none" id="Menu-to-Menu_estadisticas" style="stroke:#4682B4;stroke-width:1.0;"/><polygon fill="#4682B4" points="105.91,374.66,101.6743,365.7685,102.1117,371.4084,96.4718,371.8458,105.91,374.66" style="stroke:#4682B4;stroke-width:1.0;"/><path d="M85.91,316 L85.91,340 L235.91,340 L235.91,326 L225.91,316 L85.91,316 " fill="#FEFFDD" style="stroke:#181818;stroke-width:0.5;"/><path d="M225.91,316 L225.91,326 L235.91,326 L225.91,316 " fill="#FEFFDD" style="stroke:#181818;stroke-width:0.5;"/><text fill="#000000" font-family="sans-serif" font-size="13" lengthAdjust="spacing" textLength="129" x="91.91" y="332.7686">Consultar estad&#237;sticas</text></g><!--link Menu_estadisticas to Menu--><g id="link_Menu_estadisticas_Menu"><path d="M194.71,374.92 C211.48,366.49 229.54,356.28 244.91,345 C270.37,326.32 291.3176,304.5843 307.9176,285.6243 " fill="none" id="Menu_estadisticas-to-Menu" style="stroke:#4682B4;stroke-width:1.0;"/><polygon fill="#4682B4" points="311.87,281.11,302.9319,285.2465,308.5764,284.8719,308.951,290.5163,311.87,281.11" style="stroke:#4682B4;stroke-width:1.0;"/><path d="M288.91,316 L288.91,340 L335.91,340 L335.91,326 L325.91,316 L288.91,316 " fill="#FEFFDD" style="stroke:#181818;stroke-width:0.5;"/><path d="M325.91,316 L325.91,326 L335.91,326 L325.91,316 " fill="#FEFFDD" style="stroke:#181818;stroke-width:0.5;"/><text fill="#000000" font-family="sans-serif" font-size="13" lengthAdjust="spacing" textLength="26" x="294.91" y="332.7686">Salir</text></g><!--link Menu_estadisticas to Consultar_estad?sticas--><g id="link_Menu_estadisticas_Consultar_estad&#237;sticas"><path d="M57.66,420.52 C40.79,428.42 25.1,439.49 14.91,455 C6.61,467.63 6,476.79 14.91,489 C34.85,516.36 63.001,528.913 95.241,535.763 " fill="none" id="Menu_estadisticas-to-Consultar_estad&#237;sticas" style="stroke:#4682B4;stroke-width:1.0;"/><polygon fill="#4682B4" points="101.11,537.01,93.1378,531.2269,96.2192,535.9709,91.4752,539.0522,101.11,537.01" style="stroke:#4682B4;stroke-width:1.0;"/><path d="M19.91,460 L19.91,484 L169.91,484 L169.91,470 L159.91,460 L19.91,460 " fill="#FEFFDD" style="stroke:#181818;stroke-width:0.5;"/><path d="M159.91,460 L159.91,470 L169.91,470 L159.91,460 " fill="#FEFFDD" style="stroke:#181818;stroke-width:0.5;"/><text fill="#000000" font-family="sans-serif" font-size="13" lengthAdjust="spacing" textLength="129" x="25.91" y="476.7686">Consultar estad&#237;sticas</text></g><!--link Consultar_estad?sticas to Menu_estadisticas--><g id="link_Consultar_estad&#237;sticas_Menu_estadisticas"><path d="M185.46,518.77 C186.51,500.69 186.11,475.65 178.91,455 C175.17,444.3 172.2341,438.6466 165.5141,429.8566 " fill="none" id="Consultar_estad&#237;sticas-to-Menu_estadisticas" style="stroke:#4682B4;stroke-width:1.0;"/><polygon fill="#4682B4" points="161.87,425.09,164.1584,434.6693,164.9067,429.0622,170.5139,429.8105,161.87,425.09" style="stroke:#4682B4;stroke-width:1.0;"/><path d="M190.91,460 L190.91,484 L237.91,484 L237.91,470 L227.91,460 L190.91,460 " fill="#FEFFDD" style="stroke:#181818;stroke-width:0.5;"/><path d="M227.91,460 L227.91,470 L237.91,470 L227.91,460 " fill="#FEFFDD" style="stroke:#181818;stroke-width:0.5;"/><text fill="#000000" font-family="sans-serif" font-size="13" lengthAdjust="spacing" textLength="26" x="196.91" y="476.7686">Salir</text></g><!--SRC=[fPBHQi8m543VynL1tmQ2YcpwCiXgDmgpYh6-Z56YJRTWbuoaPR2nJzhJFi4VMzgkDT4L9-QbzDvpJ-wzhTem_aeaUO4V0Eg3KvBIMy5JpDufx0tie2CI8U4g8UlDBd6Ztvwao7XKfjjnDnx6iG486L7vcnnS3lkhKeka56yDuTrjxTweDxhgsgcokpxu143bLy2MFmrHi73zXUUWyRG5YOA-G5dwN04Jrm_2sTpp7M-6xWjWGdbcfLsyG6CFvmvS4o7LICHKojP4MNY00pJtfWQQgOn89cfiwSuhge2ML5OC00yNZx3JkQxw1EMp21MTvHDpeJM2muJnSkNvyJXRCoAXeefjltaHfpmgO03oMjFRg76ebCSjzboDiZkz9IQuzbciBQmz_nWIauJ9emvpeOqg3Uc0_YHxEgFub56REjivh3-cUV-2gon9zSeAVljb5EpDR0hFsTs1f-uXFEpXZAORjATkwAyvVW00]--></g></svg>