<?xml version="1.0" encoding="us-ascii" standalone="no"?><svg xmlns="http://www.w3.org/2000/svg" xmlns:xlink="http://www.w3.org/1999/xlink" contentStyleType="text/css" height="750px" preserveAspectRatio="none" style="width:522px;height:750px;background:#FFFFFF;" version="1.1" viewBox="0 0 522 750" width="522px" zoomAndPan="magnify"><defs/><g><g id="NoAuth"><rect fill="#F0F8FF" height="50" rx="12.5" ry="12.5" style="stroke:#4682B4;stroke-width:0.5;" width="145" x="185.5" y="87"/><line style="stroke:#4682B4;stroke-width:0.5;" x1="185.5" x2="330.5" y1="112.6406" y2="112.6406"/><text fill="#000000" font-family="sans-serif" font-size="14" lengthAdjust="spacing" textLength="125" x="195.5" y="104.6738">NO_AUTENTICADO</text></g><g id="Menu"><rect fill="#F0F8FF" height="50" rx="12.5" ry="12.5" style="stroke:#4682B4;stroke-width:0.5;" width="136" x="190" y="231"/><line style="stroke:#4682B4;stroke-width:0.5;" x1="190" x2="326" y1="256.6406" y2="256.6406"/><text fill="#000000" font-family="sans-serif" font-size="14" lengthAdjust="spacing" textLength="116" x="200" y="248.6738">MENU_PRINCIPAL</text></g><path d="M19.5,375 L496.46,375 A12.5,12.5 0 0 1 508.96,387.5 L508.96,400.6406 L7,400.6406 L7,387.5 A12.5,12.5 0 0 1 19.5,375 " fill="#F0F8FF" style="stroke:#F0F8FF;stroke-width:1.0;"/><rect fill="none" height="369.6406" rx="12.5" ry="12.5" style="stroke:#4682B4;stroke-width:0.5;" width="501.96" x="7" y="375"/><line style="stroke:#4682B4;stroke-width:0.5;" x1="7" x2="508.96" y1="400.6406" y2="400.6406"/><text fill="#000000" font-family="sans-serif" font-size="14" lengthAdjust="spacing" textLength="101" x="207.48" y="392.6738">CAPACITACI&#211;N</text><g id="Capacitacion.SeleccionCap"><rect fill="#F0F8FF" height="50" rx="12.5" ry="12.5" style="stroke:#4682B4;stroke-width:0.5;" width="207" x="57.46" y="482.6406"/><line style="stroke:#4682B4;stroke-width:0.5;" x1="57.46" x2="264.46" y1="508.2813" y2="508.2813"/><text fill="#000000" font-family="sans-serif" font-size="14" lengthAdjust="spacing" textLength="187" x="67.46" y="500.3145">SELECCI&#211;N_CAPACITACI&#211;N</text></g><g id="Capacitacion.EnCurso"><rect fill="#F0F8FF" height="50" rx="12.5" ry="12.5" style="stroke:#4682B4;stroke-width:0.5;" width="95" x="113.46" y="583.6406"/><line style="stroke:#4682B4;stroke-width:0.5;" x1="113.46" x2="208.46" y1="609.2813" y2="609.2813"/><text fill="#000000" font-family="sans-serif" font-size="14" lengthAdjust="spacing" textLength="75" x="123.46" y="601.3145">EN_CURSO</text></g><g id="Capacitacion.Completada"><rect fill="#F0F8FF" height="50" rx="12.5" ry="12.5" style="stroke:#4682B4;stroke-width:0.5;" width="115" x="207.46" y="684.6406"/><line style="stroke:#4682B4;stroke-width:0.5;" x1="207.46" x2="322.46" y1="710.2813" y2="710.2813"/><text fill="#000000" font-family="sans-serif" font-size="14" lengthAdjust="spacing" textLength="95" x="217.46" y="702.3145">COMPLETADA</text></g><g id="Capacitacion.VerProg"><rect fill="#F0F8FF" height="50" rx="12.5" ry="12.5" style="stroke:#4682B4;stroke-width:0.5;" width="136" x="282.96" y="482.6406"/><line style="stroke:#4682B4;stroke-width:0.5;" x1="282.96" x2="418.96" y1="508.2813" y2="508.2813"/><text fill="#000000" font-family="sans-serif" font-size="14" lengthAdjust="spacing" textLength="116" x="292.96" y="500.3145">VER_PROGRESO</text></g><ellipse cx="255.96" cy="421.6406" fill="#222222" rx="10" ry="10" style="stroke:#222222;stroke-width:1.0;"/><!--link *start*Capacitacion to SeleccionCap--><g id="link_*start*Capacitacion_SeleccionCap"><path d="M248.82,428.9506 C236.13,440.1706 213.5454,460.1468 192.7754,478.5068 " fill="none" id="*start*Capacitacion-to-SeleccionCap" style="stroke:#4682B4;stroke-width:1.0;"/><polygon fill="#4682B4" points="188.28,482.4806,197.6723,479.5169,192.0262,479.1691,192.3739,473.523,188.28,482.4806" style="stroke:#4682B4;stroke-width:1.0;"/></g><!--link *start*Capacitacion to VerProg--><g id="link_*start*Capacitacion_VerProg"><path d="M263.1,428.9506 C275.79,440.1706 298.3746,460.1468 319.1446,478.5068 " fill="none" id="*start*Capacitacion-to-VerProg" style="stroke:#4682B4;stroke-width:1.0;"/><polygon fill="#4682B4" points="323.64,482.4806,319.5461,473.523,319.8938,479.1691,314.2477,479.5169,323.64,482.4806" style="stroke:#4682B4;stroke-width:1.0;"/><text fill="#191970" font-family="sans-serif" font-size="12" lengthAdjust="spacing" textLength="194" x="304.96" y="461.5039">Ver progreso de las capacitaciones</text></g><!--link SeleccionCap to EnCurso--><g id="link_SeleccionCap_EnCurso"><path d="M57.34,525.0506 C33.15,533.5806 18,546.4206 31.96,565.6406 C50.43,591.0806 78.7796,600.5668 107.3596,604.6268 " fill="none" id="SeleccionCap-to-EnCurso" style="stroke:#4682B4;stroke-width:1.0;"/><polygon fill="#4682B4" points="113.3,605.4706,104.952,600.2446,108.3497,604.7674,103.8269,608.1651,113.3,605.4706" style="stroke:#4682B4;stroke-width:1.0;"/><text fill="#191970" font-family="sans-serif" font-size="12" lengthAdjust="spacing" textLength="105" x="32.96" y="562.5039">Iniciar capacitaci&#243;n</text></g><!--link EnCurso to Completada--><g id="link_EnCurso_Completada"><path d="M186.4,633.8606 C202.52,649.2006 218.9336,664.8343 235.0736,680.1943 " fill="none" id="EnCurso-to-Completada" style="stroke:#4682B4;stroke-width:1.0;"/><polygon fill="#4682B4" points="239.42,684.3306,235.658,675.2286,235.798,680.8837,230.1429,681.0237,239.42,684.3306" style="stroke:#4682B4;stroke-width:1.0;"/><text fill="#191970" font-family="sans-serif" font-size="12" lengthAdjust="spacing" textLength="110" x="220.96" y="663.5039">Completar m&#243;dulos</text></g><!--link EnCurso to SeleccionCap--><g id="link_EnCurso_SeleccionCap"><path d="M160.96,583.3306 C160.96,567.9706 160.96,554.2006 160.96,538.8606 " fill="none" id="EnCurso-to-SeleccionCap" style="stroke:#4682B4;stroke-width:1.0;"/><polygon fill="#4682B4" points="160.96,532.8606,156.96,541.8606,160.96,537.8606,164.96,541.8606,160.96,532.8606" style="stroke:#4682B4;stroke-width:1.0;"/><text fill="#191970" font-family="sans-serif" font-size="12" lengthAdjust="spacing" textLength="192" x="161.96" y="562.5039">Sale de la capacitaci&#243;n sin finalizar</text></g><!--link Completada to SeleccionCap--><g id="link_Completada_SeleccionCap"><path d="M317.71,684.5606 C324.67,679.4806 331.08,673.5406 335.96,666.6406 C439.91,519.8106 375.18,574.4406 355.96,550.6406 C355.75,550.3806 316.9568,542.008 270.4368,532.038 " fill="none" id="Completada-to-SeleccionCap" style="stroke:#4682B4;stroke-width:1.0;"/><polygon fill="#4682B4" points="264.57,530.7806,272.5319,536.5778,269.459,531.8284,274.2084,528.7555,264.57,530.7806" style="stroke:#4682B4;stroke-width:1.0;"/><text fill="#191970" font-family="sans-serif" font-size="12" lengthAdjust="spacing" textLength="101" x="388.96" y="606.5039">Seleccionar nueva</text><text fill="#191970" font-family="sans-serif" font-size="12" lengthAdjust="spacing" textLength="69" x="404.96" y="619.9102">capacitaci&#243;n</text></g><ellipse cx="258" cy="16" fill="#222222" rx="10" ry="10" style="stroke:#222222;stroke-width:1.0;"/><!--link *start* to NoAuth--><g id="link_*start*_NoAuth"><path d="M258,26.01 C258,39.89 258,60.97 258,80.84 " fill="none" id="*start*-to-NoAuth" style="stroke:#4682B4;stroke-width:1.0;"/><polygon fill="#4682B4" points="258,86.84,262,77.84,258,81.84,254,77.84,258,86.84" style="stroke:#4682B4;stroke-width:1.0;"/></g><!--link NoAuth to Menu--><g id="link_NoAuth_Menu"><path d="M209.62,137.01 C198.56,144.95 188.24,154.92 182,167 C175.07,180.43 175.07,187.57 182,201 C188.24,213.08 193.686,219.5509 204.746,227.4909 " fill="none" id="NoAuth-to-Menu" style="stroke:#4682B4;stroke-width:1.0;"/><polygon fill="#4682B4" points="209.62,230.99,204.6417,222.492,205.5583,228.0741,199.9762,228.9907,209.62,230.99" style="stroke:#4682B4;stroke-width:1.0;"/><path d="M187,172 L187,196 L284,196 L284,182 L274,172 L187,172 " fill="#FEFFDD" style="stroke:#181818;stroke-width:0.5;"/><path d="M274,172 L274,182 L284,182 L274,172 " fill="#FEFFDD" style="stroke:#181818;stroke-width:0.5;"/><text fill="#000000" font-family="sans-serif" font-size="13" lengthAdjust="spacing" textLength="76" x="193" y="188.7686">Iniciar sesi&#243;n</text></g><!--link Menu to NoAuth--><g id="link_Menu_NoAuth"><path d="M277.81,230.95 C283.92,222.08 289.86,211.61 293,201 C297.29,186.51 297.29,181.49 293,167 C289.86,156.39 287.3237,150.8612 281.2137,141.9912 " fill="none" id="Menu-to-NoAuth" style="stroke:#4682B4;stroke-width:1.0;"/><polygon fill="#4682B4" points="277.81,137.05,279.6214,146.7309,280.6464,141.1676,286.2096,142.1926,277.81,137.05" style="stroke:#4682B4;stroke-width:1.0;"/><path d="M301,172 L301,196 L399,196 L399,182 L389,172 L301,172 " fill="#FEFFDD" style="stroke:#181818;stroke-width:0.5;"/><path d="M389,172 L389,182 L399,182 L389,172 " fill="#FEFFDD" style="stroke:#181818;stroke-width:0.5;"/><text fill="#000000" font-family="sans-serif" font-size="13" lengthAdjust="spacing" textLength="77" x="307" y="188.7686">Cerrar sesi&#243;n</text></g><!--link Menu to Capacitacion--><g id="link_Menu_Capacitacion"><path d="M189.83,280.91 C177.15,288.53 165.53,298.38 158,311 C150.26,323.98 154.72,330.25 158,345 C160.2,354.91 161.1285,359.1706 164.2285,369.1406 " fill="none" id="Menu-to-Capacitacion" style="stroke:#4682B4;stroke-width:1.0;"/><polygon fill="#4682B4" points="166.01,374.87,167.1574,365.0882,164.5254,370.0955,159.5182,367.4635,166.01,374.87" style="stroke:#4682B4;stroke-width:1.0;"/><path d="M163,316 L163,340 L308,340 L308,326 L298,316 L163,316 " fill="#FEFFDD" style="stroke:#181818;stroke-width:0.5;"/><path d="M298,316 L298,326 L308,326 L298,316 " fill="#FEFFDD" style="stroke:#181818;stroke-width:0.5;"/><text fill="#000000" font-family="sans-serif" font-size="13" lengthAdjust="spacing" textLength="124" x="169" y="332.7686">Realizar capacitaci&#243;n</text></g><!--link Capacitacion to Menu--><g id="link_Capacitacion_Menu"><path d="M328.46,374.7 C329.07,352.84 325.87,331.15 317,311 C311.96,299.56 307.6642,293.4765 298.3842,285.2265 " fill="none" id="Capacitacion-to-Menu" style="stroke:#4682B4;stroke-width:1.0;"/><polygon fill="#4682B4" points="293.9,281.24,297.9686,290.2092,297.6368,284.5621,303.2839,284.2303,293.9,281.24" style="stroke:#4682B4;stroke-width:1.0;"/><path d="M331,316 L331,340 L437,340 L437,326 L427,316 L331,316 " fill="#FEFFDD" style="stroke:#181818;stroke-width:0.5;"/><path d="M427,316 L427,326 L437,326 L427,316 " fill="#FEFFDD" style="stroke:#181818;stroke-width:0.5;"/><text fill="#000000" font-family="sans-serif" font-size="13" lengthAdjust="spacing" textLength="85" x="337" y="332.7686">Volver al men&#250;</text></g><!--SRC=[XLFDJkCm4BxdAIouhOH44Te53YiPurr5QjCeQNi1L9bambguTcKd885u2Xw56zU-s3fsGXsLYaXERC_tCnvFp0ENQwRP2hr4o3vvpMhuesITysT0ezFX9b52QNGdMF6m3LpQrRrMZInz-B0whiwgAW0eNOBkWgS_pqxkl2pMMZtjsTww7OxEH-U_ZeSXdzr9z1f5fhL01ybqYUSpcinYWg-c1uWPb2ZSrFzwm8GcysMQnGc9KpnsW0d8vbE0u1IJU6R7vYrnOSBMhE2r7KfsvUcmEHrJue3BNLeE0egMO_aXYLhmFCjzRbIIHXiLnibqaexf35zXxwvMQm4rAra8Mj3C7cBwDwETq09qgjMzmxZNzOzRT7JqUpUDFj0nq4KxGsixrM0KAW49grS4XmRZBp5GSWfTybOXbhpWJ0UipRjqf1xJuhT7iPH-eT5gyrusGfaT_C3m0kLCW4zlw8CCbwZYaWd-pBHJ2Po-4kgNrbmsyCXkv31nsqvzbRhcYVpNRRbsQLsaibTXUq9mwV-3zkbBOS1y5W5awS1Hr793tRqo1BJ-NYLipVrQ6VZIV74zMyr1btz_p8KIZxPjc40ha9kFeTX_]--></g></svg>